<?xml version="1.0" encoding="UTF-8"?>
<svg width="165px" height="23px" viewBox="0 0 165 23" version="1.1" xmlns="http://www.w3.org/2000/svg" xmlns:xlink="http://www.w3.org/1999/xlink">
    <!-- Generator: Sketch 58 (84663) - https://sketch.com -->
    <title>brand-logo-mesoestetic</title>
    <desc>Created with Sketch.</desc>
    <g id="Page-1" stroke="none" stroke-width="1" fill="none" fill-rule="evenodd">
        <g id="brand-logo-mesoestetic" fill="#A0AEC0" fill-rule="nonzero">
            <path d="M156.974,11.573 C156.898,10.953 156.686,10.405 156.354,9.907 C155.874,9.241 155.11,8.907 154.098,8.907 C152.64,8.907 151.644,9.627 151.108,11.075 C150.822,11.839 150.684,12.859 150.684,14.137 C150.684,15.34 150.822,16.317 151.108,17.06 C151.628,18.432 152.594,19.118 154.018,19.118 C155.028,19.118 155.748,18.848 156.168,18.298 C156.598,17.755 156.853,17.048 156.945,16.178 L161.355,16.178 C161.257,17.493 160.782,18.738 159.931,19.905 C158.581,21.788 156.571,22.74 153.921,22.74 C151.265,22.74 149.301,21.948 148.054,20.375 C146.8,18.8 146.17,16.757 146.17,14.235 C146.17,11.4 146.87,9.195 148.25,7.615 C149.633,6.041 151.55,5.249 153.982,5.249 C156.05,5.249 157.747,5.713 159.052,6.649 C160.378,7.572 161.162,9.214 161.408,11.569 L156.978,11.569 M140.064,22.168 L144.434,22.168 L144.434,7.135 L140.064,7.135 L140.064,22.168 Z M140.064,5.231 L144.434,5.231 L144.434,1.247 L140.064,1.247 L140.064,5.23 L140.064,5.231 Z M129.476,8.878 L129.476,5.798 L131.78,5.798 L131.78,1.193 L136.056,1.193 L136.056,5.799 L138.739,5.799 L138.739,8.876 L136.053,8.876 L136.053,17.6 C136.053,18.287 136.139,18.707 136.313,18.875 C136.481,19.04 137.011,19.118 137.885,19.118 L138.298,19.118 L138.738,19.083 L138.738,22.32 L136.688,22.387 C134.646,22.457 133.258,22.11 132.508,21.329 C132.015,20.835 131.778,20.071 131.778,19.039 L131.778,8.873 L129.473,8.873 L129.476,8.878 Z M125.656,5.986 C126.758,6.506 127.66,7.312 128.384,8.424 C129.026,9.409 129.444,10.54 129.64,11.832 C129.755,12.592 129.798,13.685 129.775,15.109 L118.475,15.109 C118.532,16.762 119.055,17.926 120.035,18.589 C120.629,19.009 121.341,19.209 122.183,19.209 C123.076,19.209 123.793,18.956 124.353,18.452 C124.651,18.185 124.917,17.804 125.155,17.322 L129.56,17.322 C129.454,18.302 128.942,19.297 128.037,20.302 C126.62,21.916 124.634,22.715 122.093,22.715 C119.993,22.715 118.143,22.037 116.533,20.685 C114.926,19.325 114.121,17.125 114.121,14.075 C114.121,11.21 114.851,9.023 116.291,7.498 C117.751,5.974 119.631,5.211 121.951,5.211 C123.321,5.211 124.555,5.464 125.658,5.984 L125.656,5.986 Z M119.61,9.71 C119.058,10.333 118.72,11.18 118.578,12.255 L125.292,12.255 C125.216,11.11 124.868,10.247 124.244,9.662 C123.619,9.068 122.869,8.767 121.946,8.767 C120.943,8.767 120.16,9.085 119.61,9.71 Z M104.9,8.875 L104.9,5.798 L107.208,5.798 L107.208,1.192 L111.483,1.192 L111.483,5.798 L114.163,5.798 L114.163,8.875 L111.483,8.875 L111.483,17.6 C111.483,18.287 111.568,18.707 111.736,18.875 C111.912,19.04 112.431,19.118 113.312,19.118 L113.725,19.118 L114.165,19.083 L114.165,22.32 L112.12,22.387 C110.075,22.457 108.68,22.11 107.937,21.329 C107.451,20.835 107.207,20.071 107.207,19.039 L107.207,8.873 L104.9,8.873 L104.9,8.875 Z M94.218,16.885 C94.302,17.66 94.501,18.205 94.81,18.522 C95.34,19.107 96.33,19.392 97.776,19.392 C98.621,19.392 99.296,19.262 99.796,19.01 C100.302,18.76 100.551,18.377 100.551,17.876 C100.551,17.389 100.347,17.026 99.949,16.77 C99.543,16.515 98.039,16.08 95.443,15.468 C93.573,14.998 92.259,14.421 91.493,13.726 C90.721,13.042 90.338,12.043 90.338,10.758 C90.338,9.223 90.935,7.923 92.128,6.828 C93.333,5.728 95.014,5.175 97.193,5.175 C99.241,5.175 100.927,5.59 102.225,6.422 C103.519,7.246 104.269,8.656 104.46,10.675 L100.14,10.675 C100.08,10.121 99.926,9.687 99.67,9.358 C99.196,8.773 98.39,8.478 97.245,8.478 C96.308,8.478 95.637,8.628 95.228,8.923 C94.838,9.213 94.642,9.561 94.642,9.946 C94.642,10.444 94.855,10.806 95.279,11.028 C95.704,11.261 97.205,11.655 99.779,12.226 C101.495,12.626 102.783,13.239 103.637,14.056 C104.487,14.888 104.912,15.92 104.912,17.162 C104.912,18.8 104.302,20.142 103.077,21.18 C101.867,22.21 99.987,22.724 97.44,22.724 C94.843,22.724 92.928,22.179 91.68,21.086 C90.45,19.988 89.834,18.586 89.834,16.886 L94.218,16.886 L94.218,16.885 Z M85.338,5.983 C86.441,6.503 87.346,7.309 88.058,8.421 C88.715,9.408 89.128,10.539 89.312,11.831 C89.432,12.591 89.47,13.681 89.457,15.107 L78.15,15.107 C78.21,16.76 78.73,17.924 79.717,18.587 C80.31,19.007 81.023,19.207 81.863,19.207 C82.753,19.207 83.477,18.954 84.035,18.45 C84.338,18.183 84.598,17.802 84.832,17.32 L89.242,17.32 C89.132,18.3 88.62,19.295 87.718,20.3 C86.298,21.914 84.316,22.713 81.772,22.713 C79.672,22.713 77.822,22.035 76.216,20.683 C74.602,19.323 73.802,17.123 73.802,14.073 C73.802,11.208 74.524,9.021 75.965,7.496 C77.423,5.972 79.31,5.21 81.62,5.21 C82.995,5.21 84.23,5.464 85.34,5.984 L85.338,5.983 Z M79.293,9.71 C78.739,10.333 78.397,11.18 78.259,12.255 L84.971,12.255 C84.893,11.11 84.543,10.247 83.924,9.662 C83.31,9.068 82.54,8.767 81.618,8.767 C80.614,8.767 79.838,9.085 79.29,9.71 L79.293,9.71 Z M71.433,20.165 C70.037,21.885 67.925,22.74 65.083,22.74 C62.253,22.74 60.127,21.885 58.733,20.165 C57.341,18.435 56.639,16.359 56.639,13.94 C56.639,11.55 57.339,9.483 58.731,7.74 C60.124,5.99 62.249,5.117 65.079,5.117 C67.923,5.117 70.035,5.991 71.429,7.739 C72.824,9.479 73.519,11.549 73.519,13.939 C73.519,16.359 72.824,18.433 71.429,20.162 L71.433,20.165 Z M67.98,17.77 C68.656,16.872 68.998,15.595 68.998,13.94 C68.998,12.28 68.656,11.007 67.981,10.115 C67.305,9.217 66.336,8.767 65.071,8.767 C63.809,8.767 62.835,9.217 62.147,10.115 C61.467,11.007 61.134,12.279 61.134,13.94 C61.134,15.595 61.468,16.872 62.148,17.77 C62.836,18.668 63.81,19.118 65.073,19.118 C66.336,19.118 67.306,18.668 67.983,17.77 L67.98,17.77 Z M45.276,16.885 C45.363,17.66 45.556,18.205 45.864,18.522 C46.401,19.107 47.392,19.392 48.838,19.392 C49.686,19.392 50.356,19.262 50.854,19.01 C51.36,18.76 51.607,18.377 51.607,17.876 C51.607,17.389 51.403,17.026 51.005,16.77 C50.599,16.515 49.101,16.08 46.501,15.468 C44.631,14.998 43.315,14.421 42.551,13.726 C41.779,13.042 41.398,12.043 41.398,10.758 C41.398,9.223 41.995,7.923 43.188,6.828 C44.392,5.728 46.075,5.175 48.248,5.175 C50.312,5.175 51.991,5.59 53.285,6.422 C54.587,7.246 55.327,8.656 55.522,10.675 L51.199,10.675 C51.139,10.121 50.983,9.687 50.736,9.358 C50.251,8.773 49.446,8.478 48.308,8.478 C47.365,8.478 46.698,8.628 46.292,8.923 C45.896,9.213 45.692,9.561 45.692,9.946 C45.692,10.444 45.912,10.806 46.342,11.028 C46.762,11.261 48.262,11.655 50.837,12.226 C52.555,12.626 53.841,13.239 54.697,14.056 C55.547,14.888 55.97,15.92 55.97,17.162 C55.97,18.8 55.358,20.142 54.134,21.18 C52.927,22.21 51.049,22.724 48.494,22.724 C45.904,22.724 43.987,22.179 42.741,21.086 C41.514,19.988 40.891,18.586 40.891,16.886 L45.275,16.886 L45.276,16.885 Z M36.392,5.983 C37.492,6.503 38.396,7.309 39.118,8.421 C39.768,9.408 40.183,10.539 40.373,11.831 C40.49,12.591 40.538,13.681 40.513,15.107 L29.203,15.107 C29.263,16.76 29.793,17.924 30.766,18.587 C31.363,19.007 32.086,19.207 32.921,19.207 C33.811,19.207 34.531,18.954 35.091,18.45 C35.385,18.183 35.651,17.802 35.895,17.32 L40.295,17.32 C40.188,18.3 39.677,19.295 38.765,20.3 C37.358,21.914 35.377,22.713 32.832,22.713 C30.732,22.713 28.879,22.035 27.269,20.683 C25.664,19.323 24.867,17.123 24.867,14.073 C24.867,11.208 25.587,9.021 27.027,7.496 C28.481,5.972 30.367,5.209 32.677,5.209 C34.05,5.209 35.292,5.463 36.395,5.983 L36.392,5.983 Z M30.352,9.71 C29.802,10.333 29.447,11.18 29.312,12.255 L36.02,12.255 C35.955,11.11 35.61,10.247 34.982,9.662 C34.367,9.068 33.592,8.767 32.675,8.767 C31.68,8.767 30.901,9.085 30.352,9.71 Z M20.688,5.706 C21.394,5.991 22.034,6.48 22.61,7.188 C23.07,7.765 23.393,8.473 23.554,9.31 C23.649,9.866 23.696,10.682 23.696,11.757 L23.674,22.167 L19.247,22.167 L19.247,11.647 C19.247,11.019 19.139,10.507 18.945,10.097 C18.559,9.334 17.855,8.947 16.82,8.947 C15.63,8.947 14.804,9.447 14.354,10.433 C14.114,10.961 14.007,11.59 14.007,12.333 L14.007,22.168 L9.65,22.168 L9.65,12.333 C9.65,11.348 9.55,10.636 9.355,10.188 C8.983,9.392 8.275,8.998 7.215,8.998 C5.98,8.998 5.155,9.392 4.725,10.188 C4.495,10.648 4.379,11.324 4.379,12.226 L4.379,22.168 L0,22.168 L0,5.678 L4.198,5.678 L4.198,8.09 C4.734,7.227 5.241,6.612 5.712,6.25 C6.552,5.606 7.637,5.28 8.97,5.28 C10.234,5.28 11.255,5.554 12.03,6.114 C12.66,6.632 13.137,7.294 13.453,8.094 C14.023,7.134 14.73,6.42 15.565,5.964 C16.452,5.514 17.443,5.281 18.535,5.281 C19.265,5.281 19.975,5.421 20.688,5.706 L20.688,5.706 Z M160.748,3.524 L160.748,1.34 L161.355,1.34 C161.623,1.34 161.777,1.34 161.8,1.35 C161.976,1.354 162.118,1.395 162.235,1.458 C162.43,1.568 162.53,1.738 162.53,1.978 C162.53,2.158 162.474,2.291 162.367,2.38 C162.267,2.46 162.147,2.5 162,2.523 C162.13,2.553 162.235,2.593 162.305,2.65 C162.43,2.75 162.497,2.91 162.497,3.137 L162.497,3.397 C162.507,3.414 162.512,3.442 162.512,3.442 L162.534,3.524 L161.991,3.524 C161.971,3.454 161.966,3.356 161.951,3.224 C161.947,3.089 161.941,2.999 161.927,2.957 C161.894,2.871 161.845,2.823 161.765,2.795 C161.715,2.772 161.659,2.761 161.565,2.761 L161.445,2.751 L161.323,2.751 L161.323,3.527 L160.753,3.527 L160.748,3.524 Z M160.248,1.088 C159.878,1.465 159.694,1.911 159.694,2.432 C159.694,2.957 159.886,3.414 160.26,3.792 C160.628,4.162 161.078,4.344 161.6,4.344 C162.13,4.344 162.575,4.161 162.952,3.784 C163.315,3.407 163.502,2.957 163.502,2.432 C163.502,1.912 163.315,1.465 162.952,1.088 C162.575,0.708 162.13,0.515 161.602,0.515 C161.072,0.515 160.619,0.707 160.247,1.088 L160.248,1.088 Z M163.304,4.168 C162.824,4.63 162.268,4.855 161.601,4.855 C160.921,4.855 160.351,4.625 159.881,4.155 C159.413,3.682 159.175,3.109 159.175,2.432 C159.175,1.712 159.43,1.132 159.935,0.656 C160.404,0.22 160.966,0 161.6,0 C162.273,0 162.85,0.238 163.322,0.712 C163.787,1.186 164.036,1.755 164.036,2.432 C164.036,3.112 163.786,3.697 163.302,4.167 L163.304,4.168 Z M161.786,1.766 C161.708,1.736 161.601,1.73 161.456,1.73 L161.32,1.73 L161.32,2.356 L161.54,2.356 C161.68,2.356 161.777,2.332 161.853,2.28 C161.933,2.224 161.963,2.137 161.963,2.02 C161.963,1.897 161.903,1.817 161.786,1.766 L161.786,1.766 Z" id="Shape"></path>
        </g>
    </g>
</svg>