<?xml version="1.0" encoding="UTF-8"?>
<svg width="400px" height="64px" viewBox="0 0 400 64" version="1.1" xmlns="http://www.w3.org/2000/svg" xmlns:xlink="http://www.w3.org/1999/xlink">
    <!-- Generator: Sketch 58 (84663) - https://sketch.com -->
    <title>brand-logo-profhilo</title>
    <desc>Created with Sketch.</desc>
    <g id="Page-1" stroke="none" stroke-width="1" fill="none" fill-rule="evenodd">
        <g id="brand-logo-profhilo" fill-rule="nonzero">
            <path d="M267.975995,26.5399826 C267.975995,33.9633154 267.956104,41.3866481 268,48.8095441 C268.005832,49.7974002 267.730953,50.0155406 266.817866,49.9991638 C263.29248,49.9360582 259.765401,49.9380232 256.23938,49.9705589 C255.45897,49.9777647 255.212448,49.7690135 255.222816,48.9357556 C255.267254,45.3339236 255.219642,41.7307818 255.259001,38.1287317 C255.267677,37.3236421 255.061571,37.0718742 254.257461,37.0751494 C247.099193,37.1059381 239.940501,37.1105236 232.782232,37.0707825 C231.893479,37.0657602 231.741545,37.3847824 231.750221,38.2005718 C231.787676,41.7299083 231.744719,45.2601185 231.782385,48.7892368 C231.791061,49.601532 231.647803,49.9268869 230.756934,49.911165 C227.161083,49.8480595 223.563539,49.8574487 219.966841,49.8840887 C219.26007,49.8893292 218.998735,49.7329843 219,48.9346638 C219.023282,33.9425712 219.020531,18.9504787 219.006141,3.95838625 C219.005506,3.28802411 219.129509,2.99804334 219.866115,3.00568591 C223.533278,3.0430253 227.201076,3.04630069 230.868028,3.00437575 C231.659864,2.99542304 231.781539,3.30789477 231.779423,4.02323887 C231.757627,10.9369217 231.785136,17.8510411 231.745142,24.7645056 C231.739429,25.7438457 231.95675,26.0495483 232.955539,26.0427792 C239.972665,25.9949586 246.990426,25.9936484 254.007553,26.0429975 C255.055223,26.0504218 255.271698,25.7165508 255.265138,24.6959408 C255.221335,17.85519 255.25752,11.0140024 255.223663,4.17303314 C255.219219,3.28977097 255.414321,2.98668867 256.321484,3 C259.88242,3.05437996 263.444626,3.04935771 267.005773,3.00219217 C267.820252,2.99149258 267.995675,3.25636206 267.992712,4.05162552 C267.964568,11.5478901 267.975995,19.0439364 267.975995,26.5399826 Z" id="Path" fill="#A0AEC0"></path>
            <path d="M353.176574,46.7154764 C352.912869,47.0132328 352.625707,46.9072981 352.373629,46.9070873 C348.15985,46.9056102 343.946073,46.8851407 339.732501,46.8969581 C339.165321,46.8986461 338.799435,46.7648563 338.512277,46.2083826 C333.245924,36.0089022 333.509422,19.3796948 341.993473,9.21186788 C346.939015,3.28459225 353.330963,0.423301649 360.805262,0.0470437292 C369.119829,-0.371419229 376.491543,1.96863914 382.302035,8.40047603 C386.990807,13.5908517 389.209358,19.9355351 389.827934,26.9122391 C390.416731,33.5546791 389.530778,39.9546513 386.606771,45.9811088 C386.262507,46.6907863 385.892341,47.0107005 385.070223,47 C380.789143,46.9427506 376.507044,46.9632198 372.225352,46.9547789 C372.096458,46.9545677 371.967764,46.9309331 371.892304,46.9235471 C371.73404,46.780894 371.792369,46.6705279 371.861304,46.6078534 C375.12448,43.6446377 376.641448,39.7567094 377.29102,35.4486303 C378.096618,30.1054723 377.818228,24.8249889 375.770995,19.8006901 C373.389285,13.9561363 369.106166,10.8346516 362.88676,10.7150003 C356.588017,10.5938719 351.879665,13.3395207 349.460431,19.3794838 C346.333698,27.1859388 346.372243,35.0586556 350.103071,42.7323758 C350.480785,43.5091595 351.011457,44.2179931 351.540091,44.9012928 C352.03691,45.5438644 352.624892,46.1108892 353.176574,46.7154764 Z" id="Path" fill="#A0AEC0"></path>
            <path d="M120.839638,46.8684465 C120.358066,46.8959636 120.129416,46.9207078 119.900766,46.9204946 C115.754474,46.9177216 111.607978,46.9057759 107.461685,46.9143084 C106.950742,46.915375 106.586248,46.8445557 106.313949,46.2920784 C101.285489,36.0883149 101.634276,19.7168577 109.752263,9.60673799 C114.619383,3.5452737 120.956512,0.53907237 128.43485,0.0717065086 C136.659717,-0.442374607 144.008534,1.76582776 149.910596,8.05297583 C154.251272,12.6769328 156.606915,18.3702212 157.522942,24.7070708 C158.576649,31.9961438 157.961681,39.0908898 154.90581,45.8507367 C154.513168,46.7193417 154.053625,47.0149915 153.133111,46.9994197 C149.225667,46.9335066 145.316591,46.9616636 141.408127,46.9556909 C141.076473,46.9552642 140.745022,46.9556909 140.359112,46.9556909 C140.406841,46.7592309 140.400722,46.6374301 140.455793,46.5791957 C143.299536,43.5751276 144.721612,39.8660645 145.300885,35.7634412 C146.116559,29.9863213 145.800407,24.3154306 143.315038,18.9892516 C140.757464,13.5088483 136.445753,10.8616505 130.619772,10.8247476 C124.761563,10.7876314 120.225485,13.2927636 117.778667,18.8800361 C114.316896,26.7849398 114.327503,34.8438546 117.8831,42.7905673 C118.548244,44.2764965 119.545043,45.5431411 120.839638,46.8684465 Z" id="Path" fill="#A0AEC0"></path>
            <path d="M167.022656,33.4799012 C167.022656,23.7786756 167.038203,14.0774499 167,4.37622426 C166.995916,3.33347742 167.198024,2.99689884 168.226804,3 C180.765985,3.0395009 193.305374,3.03637824 205.844762,3.00336721 C206.753314,3.00091369 207.020926,3.24068971 206.998746,4.2354813 C206.934486,7.1330907 206.976151,10.0333766 206.975737,12.9325474 C206.975529,14.341315 206.974907,14.3417611 205.610939,14.3419842 C197.320374,14.3422072 189.030017,14.3604971 180.73966,14.317672 C179.756068,14.3125419 179.455912,14.5654777 179.473947,15.6570719 C179.537999,19.5213689 179.539658,23.3885656 179.472703,27.2528626 C179.454047,28.3286204 179.787784,28.5170955 180.694885,28.5124115 C187.879765,28.4756087 195.065059,28.5081736 202.249939,28.4707017 C203.113509,28.4662407 203.357489,28.7133773 203.337382,29.6432621 C203.278926,32.355073 203.282036,35.0702295 203.335931,37.7824864 C203.354173,38.7003266 203.116825,38.9686528 202.248695,38.964192 C195.063608,38.927389 187.878314,38.9597308 180.693434,38.9231512 C179.783638,38.9184671 179.46607,39.1140798 179.473117,40.1878303 C179.521831,47.7328562 179.484311,55.2785512 179.517892,62.8238005 C179.522038,63.7374025 179.308736,64.012197 178.43874,63.998368 C174.985081,63.9437215 171.529764,63.9414909 168.076312,64 C167.184965,64.0144276 167.001927,63.7072913 167.004622,62.8066256 C167.033436,53.0309021 167.022656,43.2554017 167.022656,33.4799012 Z" id="Path" fill="#A0AEC0"></path>
            <path d="M295.024996,33.4261718 C295.024996,23.7264421 295.042925,14.0267124 295,4.32742698 C294.995115,3.22623007 295.290839,2.98230951 296.265182,3.0014144 C299.629634,3.06739291 302.996764,3.06717077 306.361216,3.00074794 C307.305884,2.98208736 307.480021,3.3102027 307.478578,4.25522826 C307.451582,19.9523379 307.473632,35.6494476 307.430562,51.3465573 C307.427264,52.5243961 307.75287,52.721443 308.750294,52.7163336 C317.129893,52.6739027 325.509904,52.7045596 333.889504,52.6727922 C334.719797,52.6696818 335.01717,52.8609531 334.99924,53.8204184 C334.941744,56.8918622 334.95926,59.9657502 334.991617,63.038083 C334.999034,63.749629 334.833347,63.9946602 334.13618,63.9935494 C321.394706,63.9724451 308.653437,63.9680022 295.911962,64 C295.025821,64.0022134 295.016341,63.56169 295.017165,62.8581414 C295.028912,53.0475589 295.025202,43.2367543 295.024996,33.4261718 Z" id="Path" fill="#A0AEC0"></path>
            <path d="M271.019481,26.5660872 C271.019481,19.0781939 271.033363,11.5900824 271,4.10218919 C270.996345,3.25853822 271.210818,2.98837789 272.144363,3 C276.07451,3.05057151 280.006045,3.03900568 283.936655,3.00692684 C284.716576,3.00059839 285.001383,3.17604986 285,3.96710901 C284.976859,18.9793388 284.978015,33.991787 284.997681,49.0040167 C284.998607,49.7464119 284.799404,50.0089344 283.971591,50 C280.002575,49.9567792 276.032634,49.9423764 272.063849,49.9864577 C271.147656,49.9967141 270.999121,49.6957842 271.002129,48.9208737 C271.031049,41.4694235 271.019481,34.0177555 271.019481,26.5660872 Z" id="Path" fill="#A0AEC0"></path>
            <path d="M98.8495285,63.298886 C97.8697565,61.4538868 97.5255126,59.4066773 97.3507841,57.3385804 C97.1047463,54.4269789 96.9829787,51.5038227 96.7486172,48.590888 C96.6449894,47.3036324 96.4633804,46.0137105 96.2000367,44.7526758 C95.2477877,40.1945074 93.0447082,36.7280509 88.6028948,35.2779165 C88.9884235,34.7950568 89.487171,34.6963961 89.9104389,34.470632 C92.0324094,33.3389227 93.9515029,31.8890106 95.1253946,29.6722559 C98.3092881,23.6597312 98.6618725,17.4243311 95.4494136,11.3638092 C92.3689388,5.55238339 87.2557345,3.10453164 81.1577541,3.04875724 C71.0837641,2.95654061 61.0083142,3.02831403 50.9336986,3.00298223 C50.1966281,3.00120458 50.0025084,3.24363434 50.0035512,4.01025455 C50.0225253,19.1157842 50.0244016,34.2215358 50,49.3270654 C49.998547,50.1787918 50.2427081,50.3832239 51.0050076,50.376113 C54.5481581,50.3430038 58.0923513,50.3423373 61.6350846,50.3978896 C62.4528472,50.4107776 62.6127715,50.1176844 62.6002611,49.319066 C62.5571003,46.5801209 62.6048482,43.83962 62.569819,41.1002303 C62.5604365,40.368497 62.7697769,40.1556209 63.4568056,40.1613983 C67.5212223,40.1953963 71.5860562,40.1691758 75.6504729,40.1945074 C76.4455081,40.1993962 77.2465898,40.2976123 78.0334932,40.4296044 C80.6761044,40.8729107 82.5601687,42.3799307 83.5956119,45.0397696 C83.9828086,46.0345982 84.28556,47.0549808 84.4652923,48.1169166 C84.8973178,50.6712062 85.1147903,53.2523833 85.3041139,55.8357824 C85.4855145,58.3105216 85.6692089,60.7808162 86.4050282,63.1613388 C86.5557783,63.6488647 86.6946437,64.0046211 87.303274,64 C91.0203189,63.971512 94.7377807,63.9806224 98.4548256,63.9915109 C99.0027809,63.9932883 99.1441482,63.8537414 98.8495285,63.298886 Z M84.9398531,23.1722051 C84.5810137,27.687265 82.4851066,30.0620101 78.2438763,30.4506532 C73.9863826,30.8408518 69.7092892,30.5519804 65.4411619,30.5910892 C64.5216481,30.5995331 63.3383739,31.0408397 62.7464242,30.3693248 C62.2105625,29.7615838 62.6019291,28.5329916 62.5904614,27.5792716 C62.5679427,25.729828 62.5837893,23.87994 62.5839977,22.0300521 C62.5839977,19.5144267 62.6042229,16.9983568 62.5712786,14.4831758 C62.5616873,13.7576642 62.6949232,13.4336838 63.4724438,13.4404648 C67.915508,13.4796811 72.3598237,13.4067966 76.8020539,13.4799033 C82.8193425,13.5790084 85.4496514,16.7588158 84.9398531,23.1722051 Z" id="Shape" fill="#A0AEC0"></path>
            <path d="M45.8096992,19.5112319 C45.1536909,13.628553 42.5934285,8.9248827 37.5920243,5.88418862 C34.0901574,3.7549079 30.2597604,3.03668412 26.276358,3.02939811 C17.8631645,3.01394293 9.44976057,3.03580099 1.03677754,3 C0.181672978,2.99650068 -0.00332257102,3.2735898 2.27373675e-13,4.12053306 C0.0297198649,11.5858212 0.0173026438,19.0511094 0.0173026438,26.5166184 C0.0173026438,33.9819066 0.0280361739,41.4474155 0.0015180406,48.9127038 C-0.00121795728,49.7037876 0.152839769,49.9956694 0.974691439,49.9857339 C4.54979881,49.9429011 8.12595851,49.9541613 11.7010659,50 C12.4663034,50.0093585 12.7464275,49.8243379 12.7190676,48.9692256 C12.6580337,47.0589667 12.7784177,45.1403179 12.6712928,43.2346955 C12.6049975,42.0574533 13.0006649,41.8622764 14.0247699,41.8602893 C18.9661925,41.8505747 23.9143499,42.1020523 28.848196,41.7328945 C34.0072358,41.346957 38.5799299,39.4609846 41.9582559,35.1896176 C45.5630384,30.6318883 46.4467657,25.225891 45.8096992,19.5112319 Z M33.6092533,24.1720693 C33.1005679,27.8486332 31.1979972,30.0395138 27.7550596,30.9610834 C26.1429254,31.3927242 24.4998535,31.5031183 22.8519409,31.5192358 C19.8008824,31.5490422 16.7491924,31.5042222 13.6985548,31.5488214 C12.9299499,31.5600816 12.6643476,31.3664504 12.680974,30.514429 C12.7331685,27.8296454 12.700126,25.1430954 12.7003365,22.4572079 C12.7003365,19.7344487 12.7007574,17.0119103 12.700126,14.2891511 C12.700126,13.8427175 12.6395132,13.3755298 13.2982573,13.3914265 C17.5731487,13.4949762 21.8646666,13.0823232 26.1216688,13.6493071 C31.7675057,14.4013114 34.4323678,18.2224916 33.6092533,24.1720693 Z" id="Shape" fill="#A0AEC0"></path>
            <path d="M395.5,0 C393.014743,0 391,2.01474389 391,4.5 C391,6.9852561 393.014743,9 395.5,9 C397.985257,9 400,6.9852561 400,4.5 C400,2.01474389 397.985431,0 395.5,0 Z M395.5,8.12911185 C393.495652,8.12911185 391.870888,6.5043468 391.870888,4.5 C391.870888,2.49565319 393.495652,0.870888159 395.5,0.870888159 C397.504348,0.870888159 399.129112,2.49565319 399.129112,4.5 C399.129112,6.5043468 397.504348,8.12911185 395.5,8.12911185 Z" id="Shape" fill="#999999"></path>
            <path d="M395.379405,6.69868083 C395.949507,6.34350752 396.061686,5.4932802 395.97288,4.5514643 C395.887371,3.64461857 395.538873,3.16169704 395.032284,3.09009141 C394.486512,3.01301431 393.936342,3.03371093 393.388374,3.00111966 C393.144907,2.98660824 392.998636,3.1093607 393,3.59204433 C393.005785,5.53134298 393.001936,7.47087949 393.00331,9.41017811 C393.003586,9.77391557 393.078646,10.0046712 393.32431,9.99753439 C393.556641,9.9908734 393.657822,9.80151108 393.659745,9.42088328 C393.662496,8.90632207 393.655209,8.39152299 393.666207,7.87743757 C393.673356,7.54557768 393.593346,7.11689565 393.888639,7.01317455 C394.142415,6.92396491 394.324155,7.09786426 394.454619,7.49657187 C394.657254,8.11604359 394.896048,8.70173464 395.087412,9.33072205 C395.280975,9.96660839 395.541348,10.1604907 395.958306,9.86455255 C395.813685,9.0485817 395.487048,8.42482791 395.243031,7.72756536 C395.083974,7.27342881 394.951998,6.96512029 395.379405,6.69868083 Z M394.221327,6.03591268 C393.895512,6.12417078 393.629226,5.99808779 393.642288,5.05912659 C393.653148,4.28074276 393.735906,3.84730287 394.244697,3.96957953 C394.673889,4.07258695 395.275476,3.77617303 395.310942,4.92662054 C395.346135,6.07112075 394.781394,5.99927727 394.221327,6.03591268 Z" id="Shape" fill="#999999"></path>
        </g>
    </g>
</svg>