<?xml version="1.0" encoding="UTF-8"?>
<svg width="400px" height="66px" viewBox="0 0 400 66" version="1.1" xmlns="http://www.w3.org/2000/svg" xmlns:xlink="http://www.w3.org/1999/xlink">
    <!-- Generator: Sketch 58 (84663) - https://sketch.com -->
    <title>brand-logo-teoxane</title>
    <desc>Created with Sketch.</desc>
    <g id="Page-1" stroke="none" stroke-width="1" fill="none" fill-rule="evenodd">
        <g id="brand-logo-teoxane" fill="#A0AEC0" fill-rule="nonzero">
            <polygon id="Shape" points="339.567871 59.160557 302.952334 5.186047 297.674419 5.186047 297.674419 65.651163 301.962725 65.651163 301.962725 11.676652 338.578261 65.651163 344.186047 65.651163 344.186047 5.186047 339.567871 5.186047"></polygon>
            <polygon id="Shape" points="400 9.285376 400 5.186047 362.790698 5.186047 362.790698 65.651163 400 65.651163 400 61.210222 367.4007 61.210222 367.4007 37.297464 396.377855 37.297464 396.377855 33.198134 367.4007 33.198134 367.4007 9.285376"></polygon>
            <polygon id="Shape" points="0 9.285376 16.3198694 9.285376 16.3198694 65.651163 20.8894329 65.651163 20.8894329 9.285376 37.2093023 9.285376 37.2093023 5.186047 0 5.186047"></polygon>
            <polygon id="Shape" points="88.372093 9.285376 88.372093 5.186047 51.1627907 5.186047 51.1627907 65.651163 88.372093 65.651163 88.372093 61.210222 55.443507 61.210222 55.443507 37.297464 84.7499484 37.297464 84.7499484 33.198134 55.443507 33.198134 55.443507 9.285376"></polygon>
            <path d="M162.636672,33.093023 C162.636672,49.372093 151.776198,61.148441 137.182437,61.148441 C122.588675,61.148441 112.067591,49.02573 112.067591,32.74666 C112.067591,16.46759 122.928065,4.344879 137.182437,4.344879 C151.436808,4.344879 162.636672,16.813953 162.636672,33.093023 Z M137.182437,0.534884 C120.212947,0.534884 106.976744,14.735774 106.976744,33.093023 C106.976744,51.450272 120.212947,65.651163 137.182437,65.651163 C154.830706,64.612073 168.406298,49.372093 167.388129,31.361207 C166.36996,14.735774 153.133757,1.22761 137.182437,0.534884 Z" id="Shape"></path>
            <path d="M176.744186,5.186047 L177.408638,6.205121 C180.730897,10.621113 189.700997,24.20878 198.671096,37.456754 C205.980067,47.987196 213.289037,59.197021 217.607973,65.311471 L217.9402,65.651163 L223.255814,65.651163 L182.392027,5.186047 L176.744186,5.186047 Z" id="Shape"></path>
            <polygon id="Shape" points="204.651163 24.953488 207.513417 28.44186 227.906977 5.186047 221.466905 5.186047"></polygon>
            <polygon id="Shape" points="200 41.189492 196.779964 37.744186 176.744186 61 183.184258 61"></polygon>
            <path d="M247.423004,40.51398 L258.485229,11.640188 L269.547454,40.51398 L247.423004,40.51398 Z M260.905091,5.186047 L255.719673,5.186047 L254.68259,7.90358 L232.55814,65.651163 L237.397863,65.651163 L245.348837,45.269663 L270.930233,45.269663 L278.881207,65.651163 L283.72093,65.651163 L260.905091,5.186047 Z" id="Shape"></path>
        </g>
    </g>
</svg>