<?xml version="1.0" encoding="UTF-8"?>
<svg width="118px" height="52px" viewBox="0 0 118 52" version="1.1" xmlns="http://www.w3.org/2000/svg" xmlns:xlink="http://www.w3.org/1999/xlink">
    <!-- Generator: Sketch 58 (84663) - https://sketch.com -->
    <title>DrYalda</title>
    <desc>Created with Sketch.</desc>
    <g id="01-Layouts" stroke="none" stroke-width="1" fill="none" fill-rule="evenodd">
        <g id="Artboard" transform="translate(-57.000000, -84.000000)" fill="#1E2246" fill-rule="nonzero">
            <path d="M70.192,100.672 C70.6240022,100.015997 70.9799986,99.6440004 71.26,99.556 C71.5400014,99.4679996 71.7639992,99.519999 71.932,99.712 C72.1000008,99.904001 72.2119997,100.159998 72.268,100.48 C72.3240003,100.800002 72.3440001,101.047999 72.328,101.224 C72.1999994,102.104004 72.0760006,102.975996 71.956,103.84 C71.8759996,104.416003 71.7835557,104.995556 71.6786669,105.578666 L71.512,106.456 C71.4159995,107.000003 71.3040006,107.547997 71.176,108.1 C71.0479994,108.652003 70.9680002,109.207997 70.936,109.768 C71.6560036,108.599994 72.3519966,107.424006 73.024,106.24 C73.8400041,104.879993 74.7039954,103.540007 75.616,102.22 C76.5280046,100.899993 77.4959949,99.5920065 78.52,98.296 C79.3040039,97.303995 80.1759952,96.4200039 81.136,95.644 C82.0960048,94.8679961 83.0919948,94.2200026 84.124,93.7 C85.1560052,93.1799974 86.1999947,92.7920013 87.256,92.536 C88.3120053,92.2799987 89.3199952,92.1839997 90.28,92.248 C91.2400048,92.3120003 92.1319959,92.5359981 92.956,92.92 C93.7800041,93.3040019 94.4799971,93.8719962 95.056,94.624 C95.6000027,95.3600037 95.967999,96.1959953 96.16,97.132 C96.352001,98.0680047 96.4320002,99.0559948 96.4,100.096 C96.3679998,101.008005 96.2880006,101.935995 96.16,102.88 C96.0319994,103.824005 95.9120006,104.791995 95.8,105.784 L95.8839998,105.777333 C95.9639995,105.768445 96.0919991,105.750667 96.268,105.724 L98.9440001,105.31 L98.9440001,105.31 L99.484,105.232 C99.7592014,105.1936 99.9908799,105.16288 100.17904,105.13984 L100.312,105.124 C100.520001,105.1 100.616,105.104 100.6,105.136 C100.568,105.184 100.460001,105.259999 100.276,105.364 C100.091999,105.468001 99.8400016,105.568 99.52,105.664 L99.2848979,105.753143 C99.1526532,105.801143 98.9983681,105.854285 98.8220417,105.912571 L98.44,106.036 C97.9599976,106.188001 97.4760024,106.355999 96.988,106.54 C96.4999976,106.724001 96.056002,106.919999 95.656,107.128 C95.255998,107.336001 95.0240003,107.543999 94.96,107.752 C94.4159973,109.608009 93.5640058,111.387991 92.404,113.092 C91.2439942,114.796009 89.864008,116.471992 88.264,118.12 C85.9919886,120.456012 83.6160124,122.63599 81.136,124.66 C78.6559876,126.68401 76.0240139,128.559991 73.24,130.288 C71.5279914,131.344005 69.8120086,132.279996 68.092,133.096 C66.3719914,133.912004 64.616009,134.495998 62.824,134.848 C62.423998,134.928 62.0320019,134.992 61.648,135.04 C61.2639981,135.088 60.8960018,135.104 60.544,135.088 C59.2799937,135.056 58.3720028,134.684004 57.82,133.972 C57.2679972,133.259996 57.1199987,132.264006 57.376,130.984 C57.6320013,129.783994 58.1079965,128.612006 58.804,127.468 C59.5000035,126.323994 60.3359951,125.208005 61.312,124.12 C62.0640038,123.319996 62.835996,122.544004 63.628,121.792 C64.420004,121.039996 65.2319958,120.288004 66.064,119.536 C66.4320018,119.183998 66.7239989,118.844002 66.94,118.516 C67.1560011,118.187998 67.3119995,117.824002 67.408,117.424 L68.956,110.74 L68.956,110.74 L70.2782496,104.935752 C70.3447496,104.645252 70.4119997,104.352001 70.48,104.056 C70.5280002,103.655998 70.4840007,103.352001 70.348,103.144 L70.0866668,102.738667 C70.0448891,102.672889 70.0040002,102.608 69.964,102.544 C69.8439994,102.351999 69.78,102.124001 69.772,101.86 C69.764,101.595999 69.9039986,101.200003 70.192,100.672 Z M66.496,120.304 C66.4639998,120.272 66.4040004,120.288 66.316,120.352 C66.2279996,120.416 66.1360005,120.496 66.04,120.592 L65.902,120.736 L65.902,120.736 L65.608,121.072 L65.608,121.072 C64.9295966,121.788804 64.2742411,122.456959 63.6419211,123.076479 L63.172,123.532 C62.3959961,124.276004 61.6240038,125.111995 60.856,126.04 C60.1999967,126.856004 59.672002,127.691996 59.272,128.548 C58.871998,129.404004 58.6320004,130.255996 58.552,131.104 C58.4719996,132.064005 58.6639977,132.795997 59.128,133.3 C59.5920023,133.804003 60.327995,134.032 61.336,133.984 C61.8320025,133.952 62.3519973,133.896 62.896,133.816 C63.4400027,133.736 63.9759974,133.624001 64.504,133.48 C65.912007,133.095998 67.2919932,132.572003 68.644,131.908 C69.9960068,131.243997 71.3439933,130.504004 72.688,129.688 C77.8400258,126.503984 82.5679785,122.736022 86.872,118.384 C88.4240078,116.815992 89.7439946,115.216008 90.832,113.584 C91.9200054,111.951992 92.7999966,110.248009 93.472,108.472 C93.6000006,108.119998 93.6839998,107.844001 93.724,107.644 C93.7640002,107.443999 93.7400004,107.308 93.652,107.236 C93.5639996,107.164 93.4040012,107.144 93.172,107.176 C92.9399988,107.208 92.6320019,107.279999 92.248,107.392 C91.1439945,107.728002 90.0400055,108.059998 88.936,108.388 C87.8319945,108.716002 86.7280055,109.063998 85.624,109.432 C82.9359866,110.344005 80.3080128,111.455993 77.74,112.768 C75.1719872,114.080007 72.6320126,115.591991 70.12,117.304 C68.8719938,118.152004 68.152001,119.119995 67.96,120.208 L67.5693334,121.988 L67.5693334,121.988 L67.411,122.758 L67.411,122.758 L67.324,123.232 C67.2679997,123.552002 67.2080003,123.927998 67.144,124.36 L67.0750001,124.699 C67.0450002,124.836999 67.0080002,124.999999 66.964,125.188 C66.8759996,125.564002 66.7560008,125.955998 66.604,126.364 C66.4519992,126.772002 66.2680011,127.151998 66.052,127.504 C65.8359989,127.856002 65.5840014,128.095999 65.296,128.224 C65.1359992,128.256 65.0440001,128.140001 65.02,127.876 C64.9959999,127.611999 65.0079998,127.300002 65.056,126.94 C65.0880002,126.699999 65.1253333,126.456444 65.1679999,126.209334 L65.344,125.24992 C65.3632,125.13984 65.3791999,125.0432 65.392,124.96 C65.4944005,124.294397 65.6351994,123.654401 65.8143996,123.040001 L65.956,122.584 C66.2040012,121.831996 66.3839994,121.072004 66.496,120.304 Z M94,106.264 C94.3360017,105.495996 94.5799992,104.608005 94.732,103.6 C94.8840008,102.591995 94.956,101.592005 94.948,100.6 C94.94,99.607995 94.8560008,98.6880042 94.696,97.84 C94.5359992,96.9919958 94.3280013,96.3360023 94.072,95.872 C92.9519944,93.9679905 90.9680142,93.1839983 88.12,93.52 C84.6799828,93.920002 81.6880127,95.6959842 79.144,98.848 C77.0159894,101.520013 75.1600079,104.227986 73.576,106.972 C71.9919921,109.716014 70.6240058,112.487986 69.472,115.288 L69.3553602,115.60768 L69.3553602,115.60768 L69.244,115.888 C69.1399995,116.144001 69.0480004,116.387999 68.968,116.62 C68.8879996,116.852001 68.8360001,117.043999 68.812,117.196 C68.7879999,117.348001 68.8399994,117.384 68.968,117.304 C71.0640105,115.815993 73.1559896,114.496006 75.244,113.344 C77.3320104,112.191994 79.4199896,111.176004 81.508,110.296 C83.5960104,109.415996 85.6799896,108.648003 87.76,107.992 C89.8400104,107.335997 91.9199896,106.760002 94,106.264 Z M98.632,109.504 C99.0480021,109.44 99.3639989,109.472 99.58,109.6 C99.7960011,109.728001 99.9679994,109.895999 100.096,110.104 C100.181334,110.242667 100.254222,110.384889 100.314667,110.530666 L100.396,110.752 C100.468,110.976001 100.567999,111.159999 100.696,111.304 C101.016002,111.688002 101.415998,111.916 101.896,111.988 C102.376002,112.06 102.943997,112.008001 103.6,111.832 C103.728001,111.7936 103.902079,111.72448 104.122239,111.62464 L104.296,111.544 C104.600002,111.399999 104.887999,111.272001 105.16,111.16 C105.432001,111.047999 105.643999,110.98 105.796,110.956 C105.948001,110.932 105.960001,111.015999 105.832,111.208 C104.695994,112.264005 103.556006,112.851999 102.412,112.972 C101.267994,113.092001 100.152005,112.848003 99.064,112.24 C99.0319998,112.144 98.9600006,112.167999 98.848,112.312 C98.7359994,112.456001 98.6080007,112.651999 98.464,112.9 C98.3679995,113.065334 98.272,113.241333 98.1760002,113.428 L97.672,114.448 C97.4959991,114.800002 97.3200009,115.155998 97.144,115.516 C96.9679991,115.876002 96.7600012,116.223998 96.52,116.56 C96.2799988,116.896002 96.0000016,117.211999 95.68,117.508 C95.3599984,117.804001 94.9760022,118.071999 94.528,118.312 C94.3839993,118.36 94.2920002,118.352 94.252,118.288 C94.2119998,118.224 94.2039999,118.140001 94.228,118.036 C94.2440001,117.966666 94.2653333,117.893778 94.2919999,117.817333 L94.336,117.7 C94.3840002,117.579999 94.4239998,117.488 94.456,117.424 C94.6960012,116.735997 94.9919982,116.052003 95.344,115.372 C95.6960018,114.691997 96.071998,113.992004 96.472,113.272 C96.5872006,113.054399 96.7075197,112.795841 96.8329598,112.496321 L96.928,112.264 C97.0880008,111.863998 97.2559991,111.468002 97.432,111.076 C97.6080009,110.683998 97.795999,110.340001 97.996,110.044 C98.196001,109.747999 98.4079989,109.568 98.632,109.504 Z M143.824,90.856 C144.160002,90.455998 144.487998,90.2679999 144.808,90.292 C145.128002,90.3160001 145.336,90.4559987 145.432,90.712 C145.544001,90.9840014 145.632,91.2799984 145.696,91.6 C145.7472,91.8560013 145.75232,92.1222394 145.71136,92.3987195 L145.672,92.608 C145.303998,94.5280096 144.932002,96.4439904 144.556,98.356 C144.179998,100.26801 143.760002,102.19999 143.296,104.152 C142.924798,105.726408 142.515201,107.300797 142.067201,108.875197 L141.724,110.056 C141.139997,112.02401 140.584003,113.99999 140.056,115.984 L140.011,116.179 L140.011,116.179 L139.972,116.38 C139.948,116.516001 139.92,116.679999 139.888,116.872 L140.4832,116.58784 C140.6944,116.488 140.918399,116.383041 141.155199,116.27296 L141.52,116.104 C142.144003,115.815999 142.787997,115.528001 143.452,115.24 C144.116003,114.951999 144.759997,114.684001 145.384,114.436 C145.904003,114.229332 146.36011,114.058778 146.752333,113.924333 L146.98,113.848 C147.420002,113.703999 147.739999,113.624 147.94,113.608 C148.140001,113.592 148.152001,113.679999 147.976,113.872 L147.733,114.001 C147.643,114.047 147.544001,114.096 147.436,114.148 L146.988,114.366667 L146.988,114.366667 L146.288,114.713333 L146.288,114.713333 L145.771,114.961 C145.681,115.003 145.6,115.04 145.528,115.072 C144.743996,115.488002 143.964004,115.895998 143.188,116.296 C142.411996,116.696002 141.624004,117.087998 140.824,117.472 C140.279997,117.744001 139.824002,118.051998 139.456,118.396 C139.087998,118.740002 138.768001,119.167997 138.496,119.68 C137.935997,120.736005 137.352003,121.795995 136.744,122.86 C136.135997,123.924005 135.472004,124.975995 134.752,126.016 C134.079997,126.976005 133.368004,127.919995 132.616,128.848 C131.863996,129.776005 131.088004,130.695995 130.288,131.608 C129.871998,132.056002 129.476002,132.395999 129.1,132.628 C128.723998,132.860001 128.384002,132.984 128.08,133 C127.775998,133.016 127.524001,132.924001 127.324,132.724 C127.123999,132.523999 126.992,132.216002 126.928,131.8 C126.799999,130.919996 126.787999,130.056004 126.892,129.208 C126.996001,128.359996 127.239998,127.528004 127.624,126.712 C128.008002,125.895996 128.555996,125.092004 129.268,124.3 C129.980004,123.507996 130.879995,122.720004 131.968,121.936 C132.688004,121.423997 133.407996,120.936002 134.128,120.472 C134.848004,120.007998 135.575996,119.560002 136.312,119.128 C136.920003,118.759998 137.419998,118.368002 137.812,117.952 C138.204002,117.535998 138.487999,117.048003 138.664,116.488 C139.160002,114.871992 139.651998,113.260008 140.14,111.652 C140.628002,110.043992 141.095998,108.432008 141.544,106.816 C141.896002,105.503993 142.203999,104.200006 142.468,102.904 C142.732001,101.607994 142.999999,100.312006 143.272,99.016 C141.943993,101.608013 140.468008,104.151988 138.844,106.648 C137.219992,109.144012 135.552009,111.647987 133.84,114.16 C133.423998,114.784003 132.984002,115.403997 132.52,116.02 C132.055998,116.636003 131.576002,117.247997 131.08,117.856 C130.551997,118.528003 129.968003,119.151997 129.328,119.728 C128.687997,120.304003 127.984004,120.823998 127.216,121.288 C126.351996,121.816003 125.620003,122.08 125.02,122.08 C124.419997,122.08 124.008001,121.760003 123.784,121.12 C123.575999,120.591997 123.436,120.024003 123.364,119.416 C123.292,118.807997 123.264,118.184003 123.28,117.544 C123.28,116.663996 123.351999,115.768005 123.496,114.856 C123.640001,113.943995 123.843999,113.024005 124.108,112.096 C124.372001,111.167995 124.683998,110.228005 125.044,109.276 C125.404002,108.323995 125.791998,107.368005 126.208,106.408 C126.928004,104.715992 127.665999,103.028502 128.421999,101.345503 L129.184,99.664 C130.208005,97.4239888 131.199995,95.1760113 132.16,92.92 C132.480002,92.1519962 132.763999,91.3800039 133.012,90.604 C133.260001,89.8279961 133.447999,89.0640038 133.576,88.312 C133.848001,86.7599922 133.612004,85.8360015 132.868,85.54 C132.123996,85.2439985 130.880009,85.5359956 129.136,86.416 C128.031994,86.9760028 126.960005,87.6759958 125.92,88.516 C124.879995,89.3560042 123.928004,90.2679951 123.064,91.252 C122.199996,92.2360049 121.452003,93.2559947 120.82,94.312 C120.266997,95.2360046 119.857938,96.1293724 119.592813,96.9921238 L119.488,97.36 C119.392,97.6800016 119.328,97.9759986 119.296,98.248 C119.264,98.5200014 119.268,98.8079985 119.308,99.112 C119.348,99.4160015 119.419999,99.763998 119.524,100.156 C119.628001,100.548002 119.767999,101.015997 119.944,101.56 C120.008,101.768001 119.972001,101.943999 119.836,102.088 C119.699999,102.232001 119.528001,102.34 119.32,102.412 C119.111999,102.484 118.896001,102.512 118.672,102.496 C118.447999,102.48 118.280001,102.408001 118.168,102.28 C118.072,102.167999 118.016,102.020001 118,101.836 C117.984,101.651999 117.98,101.460001 117.988,101.26 L118.003,100.957 L118.003,100.957 L118.024,100.648 C118.04,100.439999 118.04,100.264001 118.024,100.12 C117.831999,99.1759953 117.919998,98.1920051 118.288,97.168 C118.656002,96.1439949 119.151997,95.1040053 119.776,94.048 C121.024006,91.9519895 122.539991,90.1440076 124.324,88.624 C126.108009,87.1039924 128.143989,85.840005 130.432,84.832 C131.904007,84.1919968 133.023996,84.0519982 133.792,84.412 C134.560004,84.7720018 134.928,85.5679938 134.896,86.8 C134.88,87.808005 134.720002,88.8359948 134.416,89.884 C134.111998,90.9320052 133.712002,91.9999946 133.216,93.088 C132.287995,95.1840105 131.348005,97.2719896 130.396,99.352 C129.443995,101.43201 128.536004,103.51999 127.672,105.616 C127.111997,106.960007 126.604002,108.299993 126.148,109.636 C125.691998,110.972007 125.312002,112.287994 125.008,113.584 C124.783999,114.512005 124.668,115.419996 124.66,116.308 C124.652,117.196004 124.64,118.079996 124.624,118.96 C124.64,119.152001 124.672,119.331999 124.72,119.5 C124.768,119.668001 124.832,119.831999 124.912,119.992 C125.104001,120.408002 125.351998,120.632 125.656,120.664 C125.960002,120.696 126.415997,120.544002 127.024,120.208 C127.696003,119.839998 128.303997,119.408002 128.848,118.912 C129.392003,118.415998 129.871998,117.880003 130.288,117.304 L133.564,112.732 L133.564,112.732 C134.644005,111.219992 135.711995,109.688008 136.768,108.136 C138.112007,106.18399 139.319995,104.22801 140.392,102.268 C141.464005,100.30799 142.431996,98.32801 143.296,96.328 C143.616002,95.5599962 143.863999,94.8200036 144.04,94.108 C144.216001,93.3959964 144.192001,92.7280031 143.968,92.104 C143.946667,92.0506664 143.918222,91.9973333 143.882667,91.9440001 L143.824,91.864 C143.76,91.7839996 143.712,91.6960005 143.68,91.6 C143.648,91.5039995 143.636,91.3960006 143.644,91.276 C143.652,91.1559994 143.711999,91.0160008 143.824,90.856 Z M136.888,119.968 C135.831995,120.592003 134.792005,121.223997 133.768,121.864 C132.743995,122.504003 131.776005,123.255996 130.864,124.12 C129.999996,124.936004 129.356002,125.771996 128.932,126.628 C128.507998,127.484004 128.256,128.343996 128.176,129.208 L128.08,129.928 C128.048,130.168001 128.048,130.395999 128.08,130.612 C128.112,130.828001 128.187999,131.031999 128.308,131.224 C128.428001,131.416001 128.623999,131.583999 128.896,131.728 C130.720009,129.871991 132.279994,127.97201 133.576,126.028 C134.872006,124.08399 135.975995,122.06401 136.888,119.968 Z M151.24,113.56 C151.448001,113.688001 151.611999,113.927998 151.732,114.28 C151.852001,114.632002 151.928,115.031998 151.96,115.48 C151.992,115.928002 151.98,116.383998 151.924,116.848 C151.868,117.312002 151.760001,117.719998 151.6,118.072 C151.423999,118.392002 151.244001,118.348002 151.06,117.94 C150.875999,117.531998 150.648001,116.800005 150.376,115.744 C149.943998,116.112002 149.516002,116.479998 149.092,116.848 C148.809332,117.093335 148.524889,117.331556 148.238667,117.562666 L147.808,117.904 C147.631999,118.048001 147.448001,118.191999 147.256,118.336 C147.063999,118.480001 146.868001,118.603999 146.668,118.708 C146.467999,118.812001 146.272001,118.888 146.08,118.936 C145.887999,118.984 145.696001,118.976 145.504,118.912 C145.295999,118.848 145.156,118.748001 145.084,118.612 C145.012,118.475999 144.98,118.316001 144.988,118.132 C144.996,117.947999 145.032,117.752001 145.096,117.544 C145.16,117.335999 145.232,117.136001 145.312,116.944 C145.680002,116.079996 146.155997,115.260004 146.74,114.484 C147.324003,113.707996 148.023996,112.960004 148.84,112.24 C149.448003,111.727997 150.087997,111.372001 150.76,111.172 C151.357336,110.994221 151.872493,110.964987 152.305481,111.084296 L152.464,111.136 C152.576001,111.168 152.699999,111.22 152.836,111.292 C152.972001,111.364 153.064,111.463999 153.112,111.592 C153.16,111.720001 153.152,111.879999 153.088,112.072 C153.024,112.264001 152.856001,112.503999 152.584,112.792 C152.391999,112.968001 152.216001,113.056 152.056,113.056 C151.895999,113.056 151.732001,113.02 151.564,112.948 L151.217334,112.793333 C151.157778,112.765778 151.097334,112.737333 151.036,112.708 C150.851999,112.62 150.648001,112.58 150.424,112.588 C150.199999,112.596 149.948001,112.671999 149.668,112.816 C149.387999,112.960001 149.072002,113.223998 148.72,113.608 C148.431999,113.896001 148.132002,114.251998 147.82,114.676 C147.507998,115.100002 147.240001,115.507998 147.016,115.9 C146.791999,116.292002 146.632,116.627999 146.536,116.908 C146.44,117.188001 146.463999,117.336 146.608,117.352 C146.768001,117.336 146.955999,117.268001 147.172,117.148 C147.388001,117.027999 147.603999,116.884001 147.82,116.716 C148.036001,116.547999 148.247999,116.372001 148.456,116.188 C148.664001,116.003999 148.855999,115.824001 149.032,115.648 C149.128,115.552 149.23408,115.43872 149.35024,115.30816 L149.596,115.024 C149.812001,114.767999 150.027999,114.524001 150.244,114.292 C150.460001,114.059999 150.659999,113.868001 150.844,113.716 C151.028001,113.563999 151.16,113.512 151.24,113.56 Z M161.656,113.8 L161.7775,113.734 C161.876501,113.686 161.908,113.692 161.872,113.752 L161.79136,113.86912 C161.73952,113.93824 161.6704,114.023199 161.584,114.124 C161.439999,114.292001 161.276001,114.467999 161.092,114.652 L159.965959,115.78245 C159.748979,116.002367 159.550368,116.205387 159.370123,116.39151 L158.433334,117.361333 L158.433334,117.361333 L158.068,117.736 C157.707998,118.104002 157.328002,118.487998 156.928,118.888 L155.44,120.376 C155.247999,120.568001 155.048001,120.759999 154.84,120.952 C154.631999,121.144001 154.420001,121.315999 154.204,121.468 C153.987999,121.620001 153.768001,121.732 153.544,121.804 C153.319999,121.876 153.096001,121.88 152.872,121.816 C152.679999,121.752 152.544,121.652001 152.464,121.516 C152.384,121.379999 152.348,121.220001 152.356,121.036 C152.364,120.851999 152.396,120.652001 152.452,120.436 C152.508,120.219999 152.568,120.016001 152.632,119.824 C153.080002,118.367993 153.547998,116.916007 154.036,115.468 L155.512,111.064 L155.512,111.064 C155.464,111.048 155.372001,111.04 155.236,111.04 C155.099999,111.04 154.972001,111.032 154.852,111.016 C154.731999,111 154.644,110.964 154.588,110.908 C154.532,110.852 154.567999,110.752001 154.696,110.608 C154.813334,110.490666 154.925333,110.368 155.032,110.24 L155.188,110.044 C155.340001,109.843999 155.503999,109.680001 155.68,109.552 C156.368003,109.039997 156.943998,108.496003 157.408,107.92 C157.872002,107.343997 158.295998,106.720003 158.68,106.048 C160.424009,102.911984 162.27199,99.7920155 164.224,96.688 C164.640002,96.0319967 165.115997,95.3920031 165.652,94.768 C166.188003,94.1439969 166.719997,93.528003 167.248,92.92 C167.408001,92.727999 167.599999,92.5480008 167.824,92.38 C168.048001,92.2119992 168.263999,92.0640006 168.472,91.936 C169.032003,91.6319985 169.475998,91.5599992 169.804,91.72 C170.132002,91.8800008 170.216001,92.2159974 170.056,92.728 C169.943999,93.1120019 169.788001,93.503998 169.588,93.904 C169.387999,94.304002 169.168001,94.703998 168.928,95.104 C167.967995,96.6880079 166.900006,98.2199926 165.724,99.7 C164.547994,101.180007 163.328006,102.655993 162.064,104.128 C161.658665,104.629336 161.244445,105.127111 160.821334,105.621333 L160.18,106.36 C159.531997,107.096004 158.912003,107.847996 158.32,108.616 C157.999998,109.016002 157.728001,109.431998 157.504,109.864 L156.832,111.16 C156.159997,112.424006 155.612002,113.675994 155.188,114.916 C154.763998,116.156006 154.400002,117.391994 154.096,118.624 C154.048,118.768001 154.012,118.943999 153.988,119.152 C153.964,119.360001 153.952,119.559999 153.952,119.752 C153.952,119.944001 153.968,120.099999 154,120.22 C154.032,120.340001 154.096,120.376 154.192,120.328 C155.088004,119.623996 155.835997,118.980003 156.436,118.396 L157.306,117.544 C157.585999,117.268001 157.855999,117.000001 158.116,116.74 C158.636003,116.219997 159.163997,115.724002 159.7,115.252 C160.236003,114.779998 160.887996,114.296002 161.656,113.8 Z M161.176,103.48 C161.720003,103.015998 162.303997,102.412004 162.928,101.668 C163.552003,100.923996 164.167997,100.144004 164.776,99.328 C165.384003,98.5119959 165.955997,97.6960041 166.492,96.88 L166.929878,96.20506 C167.276817,95.6630196 167.578856,95.1720022 167.836,94.732 L168.085751,94.2962489 C168.315251,93.8867489 168.483999,93.5560013 168.592,93.304 C168.736001,92.9679983 168.720001,92.8639994 168.544,92.992 C167.599995,93.8080041 166.792003,94.6479957 166.12,95.512 C165.447997,96.3760043 164.836003,97.2519956 164.284,98.14 C163.869998,98.8060033 163.474,99.4742491 163.096001,100.144749 L162.724,100.816 C162.235998,101.712004 161.720003,102.599996 161.176,103.48 Z M168.568,124.072 C168.840001,123.992 169.047999,124.003999 169.192,124.108 C169.336001,124.212001 169.392,124.391999 169.36,124.648 C169.296,124.968002 169.100002,125.215999 168.772,125.392 C168.443998,125.568001 168.068002,125.68 167.644,125.728 C167.219998,125.776 166.780002,125.768 166.324,125.704 C165.867998,125.64 165.480002,125.536001 165.16,125.392 C164.551997,125.119999 164.056002,124.764002 163.672,124.324 C163.287998,123.883998 163.08,123.312004 163.048,122.608 C163.016,121.743996 163.028,120.864004 163.084,119.968 C163.14,119.071996 163.184,118.152005 163.216,117.208 L162.869334,117.384 L162.869334,117.384 L162.26,117.697333 C162.188,117.733778 162.114667,117.770666 162.04,117.808 C161.527997,118.048001 161.060002,118.196 160.636,118.252 C160.211998,118.308 159.848002,118.216001 159.544,117.976 C159.383999,117.847999 159.284,117.704001 159.244,117.544 C159.204,117.383999 159.204,117.208001 159.244,117.016 C159.284,116.823999 159.348,116.628001 159.436,116.428 C159.524,116.227999 159.623999,116.032001 159.736,115.84 C160.392003,114.687994 161.119996,113.740004 161.92,112.996 C162.620004,112.344997 163.399622,111.782814 164.258874,111.309438 L164.893,110.974 L164.893,110.974 L165.148,110.848 C165.316001,110.768 165.463999,110.688 165.592,110.608 C166.136003,109.605328 166.669333,108.611555 167.191999,107.626668 L167.968,106.156 C168.736004,104.691993 169.511996,103.232007 170.296,101.776 C170.349334,101.68 170.397333,101.582222 170.44,101.482667 L170.5,101.332 C170.556,101.179999 170.628,101.036001 170.716,100.9 C170.804,100.763999 170.911999,100.644001 171.04,100.54 C171.168001,100.435999 171.335999,100.36 171.544,100.312 C171.736001,100.264 171.883999,100.272 171.988,100.336 C172.092001,100.4 172.164,100.491999 172.204,100.612 C172.244,100.732001 172.26,100.867999 172.252,101.02 C172.246667,101.121334 172.236,101.217333 172.22,101.308 L172.192,101.44 C172.112,101.824002 172.052,102.155999 172.012,102.436 C171.972,102.716001 171.888001,103.055998 171.76,103.456 C171.599999,103.904002 171.408001,104.355998 171.184,104.812 C170.959999,105.268002 170.736001,105.735998 170.512,106.216 C169.999997,107.640007 169.312004,109.103992 168.448,110.608 C167.583996,112.112008 166.656005,113.511994 165.664,114.808 C165.151997,115.480003 164.760001,116.275995 164.488,117.196 C164.215999,118.116005 164.068,119.031995 164.044,119.944 C164.02,120.856005 164.111999,121.691996 164.32,122.452 C164.528001,123.212004 164.863998,123.759998 165.328,124.096 C165.616001,124.320001 165.891999,124.46 166.156,124.516 C166.420001,124.572 166.683999,124.58 166.948,124.54 C167.212001,124.5 167.475999,124.432 167.74,124.336 C168.004001,124.24 168.279999,124.152 168.568,124.072 Z M163.264,116.008 C163.392001,115.879999 163.511999,115.756001 163.624,115.636 C163.736001,115.515999 163.808,115.392001 163.84,115.264 C164.064001,114.767998 164.283999,114.268003 164.5,113.764 L165.208,112.096 L165.208,112.096 C164.791998,112.240001 164.412002,112.387999 164.068,112.54 C163.723998,112.692001 163.400002,112.875999 163.096,113.092 C162.791998,113.308001 162.504001,113.571998 162.232,113.884 C162.014399,114.133601 161.7968,114.426719 161.5792,114.763359 L161.416,115.024 C161.079998,115.568003 160.860001,115.995998 160.756,116.308 C160.651999,116.620002 160.735999,116.839999 161.008,116.968 C161.232001,117.064 161.567998,117.020001 162.016,116.836 C162.464002,116.651999 162.879998,116.376002 163.264,116.008 Z M170.368,104.008 C169.999998,104.392002 169.620002,104.899997 169.228,105.532 C168.835998,106.164003 168.476002,106.823997 168.148,107.512 C167.819998,108.200003 167.548001,108.867997 167.332,109.516 C167.115999,110.164003 167,110.695998 166.984,111.112 C167.336002,110.727998 167.675998,110.292002 168.004,109.804 C168.332002,109.315998 168.631999,108.812003 168.904,108.292 C169.176001,107.771997 169.423999,107.268002 169.648,106.78 L169.90144,106.219359 C170.02048,105.95152 170.128,105.702401 170.224,105.472 L170.428,104.86 C170.5,104.643999 170.552,104.452001 170.584,104.284 C170.616,104.115999 170.616,104 170.584,103.936 C170.552,103.872 170.480001,103.895999 170.368,104.008 Z M172.864,113.56 C173.072001,113.688001 173.235999,113.927998 173.356,114.28 C173.476001,114.632002 173.552,115.031998 173.584,115.48 C173.616,115.928002 173.604,116.383998 173.548,116.848 C173.492,117.312002 173.384001,117.719998 173.224,118.072 C173.047999,118.392002 172.868001,118.348002 172.684,117.94 C172.499999,117.531998 172.272001,116.800005 172,115.744 C171.567998,116.112002 171.140002,116.479998 170.716,116.848 C170.433332,117.093335 170.148889,117.331556 169.862667,117.562666 L169.432,117.904 C169.255999,118.048001 169.072001,118.191999 168.88,118.336 C168.687999,118.480001 168.492001,118.603999 168.292,118.708 C168.091999,118.812001 167.896001,118.888 167.704,118.936 C167.511999,118.984 167.320001,118.976 167.128,118.912 C166.919999,118.848 166.78,118.748001 166.708,118.612 C166.636,118.475999 166.604,118.316001 166.612,118.132 C166.62,117.947999 166.656,117.752001 166.72,117.544 C166.784,117.335999 166.856,117.136001 166.936,116.944 C167.304002,116.079996 167.779997,115.260004 168.364,114.484 C168.948003,113.707996 169.647996,112.960004 170.464,112.24 C171.072003,111.727997 171.711997,111.372001 172.384,111.172 C172.981336,110.994221 173.496493,110.964987 173.929481,111.084296 L174.088,111.136 C174.200001,111.168 174.323999,111.22 174.46,111.292 C174.596001,111.364 174.688,111.463999 174.736,111.592 C174.784,111.720001 174.776,111.879999 174.712,112.072 C174.648,112.264001 174.480001,112.503999 174.208,112.792 C174.015999,112.968001 173.840001,113.056 173.68,113.056 C173.519999,113.056 173.356001,113.02 173.188,112.948 L172.841334,112.793333 C172.781778,112.765778 172.721334,112.737333 172.66,112.708 C172.475999,112.62 172.272001,112.58 172.048,112.588 C171.823999,112.596 171.572001,112.671999 171.292,112.816 C171.011999,112.960001 170.696002,113.223998 170.344,113.608 C170.055999,113.896001 169.756002,114.251998 169.444,114.676 C169.131998,115.100002 168.864001,115.507998 168.64,115.9 C168.415999,116.292002 168.256,116.627999 168.16,116.908 C168.064,117.188001 168.087999,117.336 168.232,117.352 C168.392001,117.336 168.579999,117.268001 168.796,117.148 C169.012001,117.027999 169.227999,116.884001 169.444,116.716 C169.660001,116.547999 169.871999,116.372001 170.08,116.188 C170.288001,116.003999 170.479999,115.824001 170.656,115.648 C170.752,115.552 170.85808,115.43872 170.97424,115.30816 L171.22,115.024 C171.436001,114.767999 171.651999,114.524001 171.868,114.292 C172.084001,114.059999 172.283999,113.868001 172.468,113.716 C172.652001,113.563999 172.784,113.512 172.864,113.56 Z" id="DrYalda"></path>
        </g>
    </g>
</svg>