<?xml version="1.0" encoding="UTF-8"?>
<svg width="75px" height="14px" viewBox="0 0 75 14" version="1.1" xmlns="http://www.w3.org/2000/svg" xmlns:xlink="http://www.w3.org/1999/xlink">
    <!-- Generator: Sketch 58 (84663) - https://sketch.com -->
    <title>BAREBONES</title>
    <desc>Created with Sketch.</desc>
    <g id="Symbols" stroke="none" stroke-width="1" fill="none" fill-rule="evenodd">
        <path d="M0,13.8839779 L0,0.116022099 L2.88121547,0.116022099 C3.5128945,0.116022099 4.05110275,0.212706215 4.49585635,0.406077348 C4.94060996,0.599448481 5.3047868,0.85727279 5.58839779,1.17955801 C5.87200878,1.50184323 6.07504543,1.87246568 6.19751381,2.29143646 C6.3199822,2.71040725 6.38121547,3.14548577 6.38121547,3.59668508 L6.38121547,4.09944751 C6.38121547,4.47329837 6.35221023,4.78913315 6.2941989,5.04696133 C6.23618756,5.3047895 6.14917185,5.53038577 6.03314917,5.72375691 C5.81399522,6.08471635 5.47882362,6.39410552 5.02762431,6.6519337 C5.49171503,6.87108765 5.83333224,7.19336804 6.05248619,7.61878453 C6.27164014,8.04420102 6.38121547,8.62430572 6.38121547,9.35911602 L6.38121547,10.1325967 C6.38121547,11.3443891 6.08794032,12.2725566 5.50138122,12.9171271 C4.91482211,13.5616975 3.97698619,13.8839779 2.6878453,13.8839779 L0,13.8839779 Z M1.97237569,7.50276243 L1.97237569,11.9116022 L2.82320442,11.9116022 C3.22283809,11.9116022 3.53545007,11.8535917 3.76104972,11.7375691 C3.98664938,11.6215464 4.15745798,11.4604062 4.27348066,11.2541436 C4.38950334,11.0478811 4.46040503,10.802948 4.48618785,10.519337 C4.51197066,10.235726 4.52486188,9.92633685 4.52486188,9.59116022 C4.52486188,9.24309218 4.50552506,8.94014862 4.46685083,8.68232044 C4.4281766,8.42449227 4.35082931,8.2053416 4.23480663,8.02486188 C4.10589254,7.84438215 3.93186113,7.7122472 3.71270718,7.62845304 C3.49355323,7.54465888 3.20350088,7.50276243 2.84254144,7.50276243 L1.97237569,7.50276243 Z M1.97237569,1.97237569 L1.97237569,5.76243094 L2.86187845,5.76243094 C3.5193403,5.76243094 3.96086443,5.59806794 4.18646409,5.26933702 C4.41206374,4.94060609 4.52486188,4.46040831 4.52486188,3.82872928 C4.52486188,3.20994166 4.39917253,2.7458579 4.14779006,2.43646409 C3.89640758,2.12707028 3.44199224,1.97237569 2.78453039,1.97237569 L1.97237569,1.97237569 Z M12.1145153,9.06906077 L11.1476645,4.0801105 L11.1089905,4.0801105 L10.1421396,9.06906077 L12.1145153,9.06906077 Z M7.24158714,13.8839779 L10.3161728,0.116022099 L11.9598192,0.116022099 L15.0344048,13.8839779 L13.0620291,13.8839779 L12.4819186,10.9254144 L9.79407333,10.9254144 L9.21396283,13.8839779 L7.24158714,13.8839779 Z M18.0991964,1.97237569 L18.0991964,6.26519337 L19.2207433,6.26519337 C19.5688114,6.26519337 19.8459725,6.21685131 20.0522351,6.12016575 C20.2584976,6.02348018 20.4196378,5.88489961 20.5356605,5.70441989 C20.6387917,5.52394017 20.7096934,5.3015667 20.7483677,5.03729282 C20.7870419,4.77301894 20.8063787,4.46685257 20.8063787,4.11878453 C20.8063787,3.77071649 20.7870419,3.46455012 20.7483677,3.20027624 C20.7096934,2.93600236 20.6323461,2.70718329 20.5163235,2.51381215 C20.2713867,2.15285271 19.8073029,1.97237569 19.1240583,1.97237569 L18.0991964,1.97237569 Z M16.1268207,13.8839779 L16.1268207,0.116022099 L19.2980914,0.116022099 C21.618545,0.116022099 22.7787544,1.46315412 22.7787544,4.15745856 C22.7787544,4.96961732 22.653065,5.65929735 22.4016826,6.22651934 C22.1503001,6.79374133 21.708776,7.25137948 21.0770969,7.59944751 L23.2041688,13.8839779 L21.115771,13.8839779 L19.2787544,8.00552486 L18.0991964,8.00552486 L18.0991964,13.8839779 L16.1268207,13.8839779 Z M24.4899548,13.8839779 L24.4899548,0.116022099 L30.3684078,0.116022099 L30.3684078,1.97237569 L26.4623305,1.97237569 L26.4623305,6.01381215 L29.8656454,6.01381215 L29.8656454,7.87016575 L26.4623305,7.87016575 L26.4623305,11.9116022 L30.3684078,11.9116022 L30.3684078,13.8839779 L24.4899548,13.8839779 Z M35.4924661,13.8839779 L35.4924661,0.116022099 L38.3736816,0.116022099 C39.0053606,0.116022099 39.5435688,0.212706215 39.9883225,0.406077348 C40.4330761,0.599448481 40.7972529,0.85727279 41.0808639,1.17955801 C41.3644749,1.50184323 41.5675115,1.87246568 41.6899799,2.29143646 C41.8124483,2.71040725 41.8736816,3.14548577 41.8736816,3.59668508 L41.8736816,4.09944751 C41.8736816,4.47329837 41.8446763,4.78913315 41.786665,5.04696133 C41.7286537,5.3047895 41.6416379,5.53038577 41.5256153,5.72375691 C41.3064613,6.08471635 40.9712897,6.39410552 40.5200904,6.6519337 C40.9841811,6.87108765 41.3257983,7.19336804 41.5449523,7.61878453 C41.7641062,8.04420102 41.8736816,8.62430572 41.8736816,9.35911602 L41.8736816,10.1325967 C41.8736816,11.3443891 41.5804064,12.2725566 40.9938473,12.9171271 C40.4072882,13.5616975 39.4694523,13.8839779 38.1803114,13.8839779 L35.4924661,13.8839779 Z M37.4648418,7.50276243 L37.4648418,11.9116022 L38.3156705,11.9116022 C38.7153042,11.9116022 39.0279162,11.8535917 39.2535158,11.7375691 C39.4791155,11.6215464 39.6499241,11.4604062 39.7659468,11.2541436 C39.8819694,11.0478811 39.9528711,10.802948 39.9786539,10.519337 C40.0044368,10.235726 40.017328,9.92633685 40.017328,9.59116022 C40.017328,9.24309218 39.9979912,8.94014862 39.9593169,8.68232044 C39.9206427,8.42449227 39.8432954,8.2053416 39.7272727,8.02486188 C39.5983586,7.84438215 39.4243272,7.7122472 39.2051733,7.62845304 C38.9860193,7.54465888 38.695967,7.50276243 38.3350075,7.50276243 L37.4648418,7.50276243 Z M37.4648418,1.97237569 L37.4648418,5.76243094 L38.3543446,5.76243094 C39.0118064,5.76243094 39.4533305,5.59806794 39.6789302,5.26933702 C39.9045298,4.94060609 40.017328,4.46040831 40.017328,3.82872928 C40.017328,3.20994166 39.8916386,2.7458579 39.6402562,2.43646409 C39.3888737,2.12707028 38.9344583,1.97237569 38.2769965,1.97237569 L37.4648418,1.97237569 Z M43.7395781,3.36464088 C43.7395781,2.8103103 43.8362622,2.32044412 44.0296334,1.89502762 C44.2230045,1.46961113 44.4808288,1.11510271 44.803114,0.831491713 C45.1125078,0.560772127 45.4637934,0.35451268 45.8569814,0.212707182 C46.2501694,0.0709016851 46.6465743,0 47.0462079,0 C47.4458416,0 47.8422465,0.0709016851 48.2354345,0.212707182 C48.6286224,0.35451268 48.9863537,0.560772127 49.3086389,0.831491713 C49.6180327,1.11510271 49.8694114,1.46961113 50.0627825,1.89502762 C50.2561537,2.32044412 50.3528378,2.8103103 50.3528378,3.36464088 L50.3528378,10.6353591 C50.3528378,11.2154725 50.2561537,11.7117843 50.0627825,12.1243094 C49.8694114,12.5368345 49.6180327,12.8784517 49.3086389,13.1491713 C48.9863537,13.4327823 48.6286224,13.6454873 48.2354345,13.7872928 C47.8422465,13.9290983 47.4458416,14 47.0462079,14 C46.6465743,14 46.2501694,13.9290983 45.8569814,13.7872928 C45.4637934,13.6454873 45.1125078,13.4327823 44.803114,13.1491713 C44.4808288,12.8784517 44.2230045,12.5368345 44.0296334,12.1243094 C43.8362622,11.7117843 43.7395781,11.2154725 43.7395781,10.6353591 L43.7395781,3.36464088 Z M45.7119538,10.6353591 C45.7119538,11.1123412 45.8440888,11.4636269 46.1083626,11.6892265 C46.3726365,11.9148262 46.6852485,12.0276243 47.0462079,12.0276243 C47.4071674,12.0276243 47.7197794,11.9148262 47.9840532,11.6892265 C48.2483271,11.4636269 48.3804621,11.1123412 48.3804621,10.6353591 L48.3804621,3.36464088 C48.3804621,2.88765876 48.2483271,2.53637314 47.9840532,2.31077348 C47.7197794,2.08517383 47.4071674,1.97237569 47.0462079,1.97237569 C46.6852485,1.97237569 46.3726365,2.08517383 46.1083626,2.31077348 C45.8440888,2.53637314 45.7119538,2.88765876 45.7119538,3.36464088 L45.7119538,10.6353591 Z M52.1413862,13.8839779 L52.1413862,0.116022099 L54.0364139,0.116022099 L57.0143144,8.41160221 L57.0529884,8.41160221 L57.0529884,0.116022099 L59.0253641,0.116022099 L59.0253641,13.8839779 L57.1690105,13.8839779 L54.152436,5.60773481 L54.1137619,5.60773481 L54.1137619,13.8839779 L52.1413862,13.8839779 Z M60.9299347,13.8839779 L60.9299347,0.116022099 L66.8083877,0.116022099 L66.8083877,1.97237569 L62.9023104,1.97237569 L62.9023104,6.01381215 L66.3056253,6.01381215 L66.3056253,7.87016575 L62.9023104,7.87016575 L62.9023104,11.9116022 L66.8083877,11.9116022 L66.8083877,13.8839779 L60.9299347,13.8839779 Z M74.5914114,4.0801105 L72.6190357,4.0801105 L72.6190357,3.63535912 C72.6190357,3.18415981 72.5126831,2.79420054 72.2999749,2.46546961 C72.0872666,2.13673869 71.7295354,1.97237569 71.2267705,1.97237569 C70.9560509,1.97237569 70.7369002,2.02394055 70.5693119,2.12707182 C70.4017236,2.23020309 70.2663658,2.35911525 70.1632346,2.51381215 C70.0601033,2.68140047 69.9892016,2.8715459 69.9505274,3.08425414 C69.9118531,3.29696239 69.8925163,3.51933586 69.8925163,3.75138122 C69.8925163,4.0221008 69.9021847,4.24769707 69.9215218,4.4281768 C69.940859,4.60865652 69.989201,4.76979671 70.0665495,4.91160221 C70.1438979,5.05340771 70.2566961,5.17587425 70.4049473,5.27900552 C70.5531985,5.3821368 70.7562351,5.48526652 71.0140633,5.58839779 L72.5223506,6.1878453 C72.9606585,6.35543362 73.3151669,6.55202465 73.5858865,6.77762431 C73.8566061,7.00322396 74.0693111,7.26427108 74.224008,7.56077348 C74.3658135,7.87016729 74.4624976,8.22145291 74.5140633,8.61464088 C74.5656289,9.00782885 74.5914114,9.45579859 74.5914114,9.95856354 C74.5914114,10.5386769 74.5334009,11.0768852 74.4173782,11.5732044 C74.3013555,12.0695237 74.1144329,12.491711 73.8566047,12.839779 C73.5858851,13.2007385 73.2313767,13.4843452 72.7930688,13.6906077 C72.3547609,13.8968703 71.8197755,14 71.1880964,14 C70.7111143,14 70.2663674,13.9162071 69.8538423,13.7486188 C69.4413172,13.5810305 69.0868088,13.3489886 68.7903064,13.0524862 C68.493804,12.7559838 68.2585393,12.4111438 68.0845053,12.0179558 C67.9104713,11.6247678 67.8234555,11.1961349 67.8234555,10.7320442 L67.8234555,9.99723757 L69.7958312,9.99723757 L69.7958312,10.6160221 C69.7958312,10.9769815 69.9021838,11.3024847 70.114892,11.5925414 C70.3276003,11.8825981 70.6853315,12.0276243 71.1880964,12.0276243 C71.5232731,12.0276243 71.7843202,11.9792823 71.9712456,11.8825967 C72.158171,11.7859111 72.3031972,11.6473306 72.4063285,11.4668508 C72.5094597,11.2863711 72.570693,11.0704432 72.5900301,10.8190608 C72.6072187,10.5956097 72.6167678,10.3492439 72.6186776,10.0799574 L72.6190357,9.97790055 C72.6190357,9.6169411 72.6061444,9.32044315 72.5803616,9.08839779 C72.5545788,8.85635243 72.5030139,8.66942981 72.4256655,8.52762431 C72.3354256,8.38581881 72.2161819,8.26979787 72.0679307,8.17955801 C71.9196795,8.08931815 71.7230885,7.99263403 71.4781517,7.88950276 L70.0665495,7.30939227 C69.2157165,6.96132423 68.6452802,6.50046327 68.3552235,5.92679558 C68.0651668,5.35312789 67.9201406,4.63444262 67.9201406,3.77071823 C67.9201406,3.25506188 67.9910423,2.76519569 68.1328478,2.30110497 C68.2667752,1.86279707 68.4639433,1.48198861 68.7243574,1.15866949 L68.7709694,1.10220994 C69.0416889,0.767033315 69.386529,0.499540594 69.8054997,0.299723757 C70.2244705,0.0999069199 70.7240051,0 71.3041185,0 C71.7939921,0 72.2419618,0.0902385083 72.6480412,0.270718232 C73.0541206,0.451197956 73.4054062,0.689685442 73.7019086,0.986187845 C74.2949134,1.60497547 74.5914114,2.31399232 74.5914114,3.11325967 L74.5914114,4.0801105 Z" id="BAREBONES" fill="#000000" fill-rule="nonzero"></path>
    </g>
</svg>
