<?xml version="1.0" encoding="UTF-8"?>
<svg width="64px" height="64px" viewBox="0 0 64 64" version="1.1" xmlns="http://www.w3.org/2000/svg" xmlns:xlink="http://www.w3.org/1999/xlink">
    <!-- Generator: Sketch 58 (84663) - https://sketch.com -->
    <title>Atoms / Media / image / illustration/ liquid facelift</title>
    <desc>Created with Sketch.</desc>
    <g id="Atoms-/-Media-/-image-/-illustration/-liquid-facelift" stroke="none" stroke-width="1" fill="none" fill-rule="evenodd">
        <g id="blob-shape-(4)" transform="translate(1.000000, 2.000000)"></g>
        <g id="Group" transform="translate(9.000000, 2.000000)" fill="#fc8181">
            <path d="M35.6298858,33.9701186 C35.7648883,33.7007958 35.7186017,33.3661423 35.4852403,33.160817 C35.2165211,32.9241596 34.8115138,32.9588249 34.5807239,33.2361474 C34.5434375,33.2808123 33.6472783,34.3334377 31.8568886,34.3334377 C30.0664989,34.3334377 29.1703398,33.2808123 29.1362677,33.2401472 C28.9086922,32.956825 28.5036848,32.9188264 28.2311084,33.1548172 C27.958532,33.390808 27.9218885,33.8107915 28.1488212,34.0934471 C28.2002507,34.1581113 29.4409876,35.6667189 31.8568886,35.6667189 C32.1943948,35.6667189 32.5029718,35.6327202 32.7941914,35.5820555 L33.9732128,36.8046743 C34.0992151,36.9346692 34.2637895,37 34.428364,37 C34.5929384,37 34.7575128,36.9346692 34.8828722,36.8046743 C35.1342339,36.5440179 35.1342339,36.122701 34.8828722,35.8620446 L34.178288,35.1314065 C34.3582913,35.0420767 34.5215799,34.9500803 34.6662254,34.8560839 L35.9024622,36.1380337 C36.0278216,36.2680287 36.192396,36.3333594 36.3569705,36.3333594 C36.5215449,36.3333594 36.6861193,36.2680287 36.8114787,36.1380337 C37.0628404,35.8773773 37.0628404,35.4560604 36.8114787,35.195404 L35.6298858,33.9701186 Z" id="Path"></path>
            <path d="M17.8516358,34.0939399 C18.0779373,33.8133318 18.040649,33.3980851 17.7719159,33.1614678 C17.50254,32.9248505 17.0981546,32.95951 16.8673528,33.2367854 C16.8300645,33.2814428 15.933859,34.3338898 14.1433769,34.3338898 C12.3593238,34.3338898 11.4637613,33.2894411 11.4200439,33.2367854 C11.1918137,32.9568439 10.7893571,32.9195183 10.5174095,33.1548025 C10.2808216,33.3594265 10.2338897,33.697356 10.3701849,33.9699657 L9.18853102,35.1950434 C8.93715633,35.4556557 8.93715633,35.8769011 9.18853102,36.1375133 C9.31389691,36.2681527 9.47847983,36.3334724 9.64306275,36.3334724 C9.80764567,36.3334724 9.97222858,36.2681527 10.0975945,36.1381799 L11.3338951,34.8564474 C11.478548,34.9504278 11.6418451,35.0424086 11.8218577,35.1317233 L11.1172371,35.8622375 C10.8658624,36.1228497 10.8658624,36.5440952 11.1172371,36.8047074 C11.242603,36.9346803 11.4071859,37 11.5717688,37 C11.7363517,37 11.9009346,36.9346803 12.0263005,36.8047074 L13.2053829,35.5822959 C13.4972604,35.632952 13.8058533,35.6669449 14.1433769,35.6669449 C16.5594027,35.6669449 17.8002036,34.158593 17.8516358,34.0939399 Z" id="Path"></path>
            <path d="M29.1459239,30.8383827 L29.1718652,30.817222 C29.1718652,30.817222 29.183173,30.8076997 29.2051234,30.7897131 C29.2423725,30.7643203 29.2969159,30.7262311 29.3654276,30.6786195 C29.5170848,30.5828675 29.7492267,30.4511423 30.0585274,30.319417 C30.2188317,30.2628122 30.3817966,30.1813436 30.5746939,30.1289709 C30.7662608,30.0792433 30.9698007,30.005181 31.179327,29.9649757 C31.3908488,29.9284735 31.59971,29.880862 31.8338473,29.8438308 C32.0899351,29.8226701 32.3500138,29.8015094 32.6100925,29.7803488 C32.8089762,29.7639492 33.0996524,29.7819358 33.3364504,29.7808778 C33.5858866,29.7840519 33.8319968,29.787226 34.06946,29.7904001 C34.3095838,29.7851099 34.5357392,29.8062706 34.7485914,29.8343085 C34.963439,29.8581143 35.1663137,29.880333 35.3538897,29.9009646 C35.7370235,29.9332347 36.0057494,30.0221095 36.2219273,30.0543795 C36.4307885,30.100404 36.5565043,30.1448414 36.5565043,30.1448414 C36.7041705,30.1966851 36.8804386,30.1517187 36.9602582,30.037451 C37.0447339,29.9163061 36.9901905,29.7639492 36.8378682,29.6962351 L36.8092662,29.6835387 C36.8092662,29.6835387 36.6995143,29.6348691 36.4746892,29.5671549 C36.2465383,29.5126662 35.9106311,29.3851731 35.5161894,29.3248652 C35.3179709,29.289421 35.1031232,29.2508028 34.8756375,29.2100685 C34.6481518,29.164573 34.4066976,29.1259548 34.155266,29.1143164 C33.9038344,29.0942138 33.6437557,29.0730531 33.379686,29.0518924 C33.1029783,29.0360219 32.8721667,28.9984617 32.5488975,29.0000488 C32.2868233,29.0042809 32.0254143,29.008513 31.7679962,29.0122162 C31.4939491,29.0333768 31.2065987,29.0714661 30.9358774,29.102149 C30.6644909,29.1365351 30.4250322,29.2037203 30.1849084,29.2508028 C29.9474452,29.3000014 29.7345931,29.383057 29.5310532,29.4417779 C29.1319555,29.5782643 28.8126772,29.7279761 28.5931735,29.8448888 C28.4820913,29.9046677 28.3956201,29.9602145 28.3370857,29.9951296 C28.2679088,30.0422122 28.2306597,30.067605 28.2306597,30.067605 C28.2160261,30.0781853 28.2007273,30.0892947 28.1874241,30.100404 C27.9313363,30.3109528 27.9386531,30.6463495 28.203388,30.850021 C28.468788,31.0547506 28.8905013,31.0489314 29.1459239,30.8383827 Z" id="Path"></path>
            <path d="M9.44419961,30.1443297 C9.44419961,30.1443297 9.56991065,30.0998711 9.7787639,30.0538246 C9.99426854,30.0215392 10.2636493,29.9326219 10.6467687,29.9003364 C10.8343375,29.8796949 11.0372045,29.8574656 11.252044,29.8336485 C11.4648881,29.8055972 11.691035,29.7838971 11.9311497,29.7897191 C12.1686039,29.7865435 12.4147048,29.7833678 12.6641315,29.7801922 C12.9009205,29.7812508 13.1915857,29.7632556 13.3904619,29.779663 C13.6505308,29.8008337 13.9105997,29.8225338 14.1666777,29.8431753 C14.4008062,29.8796949 14.6096594,29.9278585 14.8211733,29.9643781 C15.0306916,30.0046025 15.2348889,30.0787003 15.4257835,30.1284516 C15.6193386,30.1813786 15.7816322,30.2623569 15.9419304,30.3189887 C16.2505543,30.4513061 16.4833525,30.5830943 16.6350039,30.6783628 C16.7041782,30.7265263 16.7587195,30.7641045 16.7953021,30.7895094 C16.8172517,30.8075046 16.828559,30.8170314 16.828559,30.8170314 L16.8551645,30.8387315 C16.8691324,30.8498461 16.8831003,30.8604315 16.8977333,30.8710169 C17.1764261,31.0626125 17.5974583,31.0377369 17.8382381,30.8165022 C18.0783529,30.5947382 18.0477565,30.2597105 17.7690638,30.0681149 C17.7690638,30.0681149 17.7318161,30.04271 17.6626418,29.995605 C17.6041096,29.9612024 17.5169766,29.9050999 17.4065637,29.8452924 C17.1870683,29.7283238 16.867137,29.5785405 16.4687195,29.4419889 C16.2651873,29.38324 16.0523432,29.3001447 15.8148891,29.2509226 C15.5741092,29.2038176 15.3346596,29.1366004 15.0639485,29.1021978 C14.7932375,29.0715002 14.505898,29.0328635 14.2318612,29.012222 C13.9744529,29.0085171 13.7130537,29.004283 13.4509895,29.0000488 C13.1277325,28.998461 12.8969297,29.0360391 12.6202324,29.0519172 C12.3561727,29.073088 12.0961039,29.0942588 11.8446818,29.114371 C11.5932597,29.126015 11.3524798,29.1646517 11.1243376,29.2101688 C10.8968605,29.2509226 10.682021,29.2895593 10.4838099,29.3250203 C10.0893832,29.3848278 9.75348867,29.5129111 9.52534642,29.5674258 C9.30052986,29.6351723 9.19078213,29.6838652 9.19078213,29.6838652 L9.16085093,29.6970969 C9.02050686,29.76008 8.96064446,29.8982194 9.02715824,30.0178343 C9.09899312,30.1438005 9.28523169,30.2004323 9.44419961,30.1443297 Z" id="Path"></path>
            <path d="M28.101961,48.0416375 C28.0846277,48.0483031 26.3626324,48.6668737 23.0006414,48.6668737 C19.6393172,48.6668737 17.9166551,48.0483031 17.9013219,48.042304 C17.5566561,47.9136574 17.1719905,48.0882969 17.0426575,48.4322435 C16.9133245,48.7775232 17.0879907,49.1614636 17.4326565,49.2907768 C17.5106562,49.3201056 19.3673179,50 23.0006414,50 C26.6346316,50 28.4906266,49.3201056 28.5679598,49.2914434 C28.9119588,49.1627967 29.0859584,48.7795229 28.9579587,48.4355763 C28.8306257,48.0909632 28.4472934,47.915657 28.101961,48.0416375 Z" id="Path"></path>
            <path d="M25.7199875,50.3284606 C25.6891883,50.3764478 24.9486076,51.4996491 23.5003454,51.4996491 C22.0513831,51.4996491 21.3101025,50.3764478 21.2821032,50.3337092 C21.0672088,49.9895508 20.6318201,49.8958257 20.3112285,50.1267643 C19.9899369,50.356953 19.9031391,50.8218294 20.1180335,51.1667376 C20.1642323,51.2417177 21.2856031,53 23.5010453,53 C25.7157876,53 26.8357584,51.2417177 26.8826572,51.1667376 C27.0961516,50.8240788 27.0100539,50.364451 26.6915622,50.1335125 C26.3730705,49.9003245 25.9383818,49.9903006 25.7199875,50.3284606 Z" id="Path"></path>
            <path d="M20.8082307,43.8046829 C20.9250984,43.9300058 21.0844635,44 21.2500781,44 L23.7499219,44 C23.9155365,44 24.0749016,43.9300058 24.1917693,43.8046829 L24.8167302,43.1380718 C25.0610899,42.8774269 25.0610899,42.4561287 24.8167302,42.1954837 C24.5723705,41.9348388 24.1773952,41.9348388 23.9330354,42.1954837 L23.4911881,42.6667778 L21.5088119,42.6667778 L21.0669646,42.1954837 C20.8226048,41.9348388 20.4276295,41.9348388 20.1832698,42.1954837 C19.9389101,42.4561287 19.9389101,42.8774269 20.1832698,43.1380718 L20.8082307,43.8046829 Z" id="Path"></path>
            <path d="M43.1088513,34.2239333 C43.1864999,33.3330333 43.2276079,32.4362333 43.2276079,31.5355 C43.2276079,31.3040889 43.2191253,31.0779222 43.2145578,30.8491333 C43.2178203,30.7953778 43.2217354,30.7435889 43.2112952,30.6898333 C43.0057549,22.8231667 39.9402679,16.5547444 34.8931112,12.8593778 C35.2219757,11.9743778 35.3975006,10.9648222 35.3975006,9.83333333 C35.3975006,4.41123333 29.8361669,0 22.9998307,0 C16.1634944,0 10.6021607,4.41123333 10.6021607,9.83333333 C10.6021607,10.9648222 10.7776856,11.9743778 11.1058976,12.8593778 C6.05939343,16.5554 2.9932539,22.8238222 2.78771358,30.6898333 C2.77727343,30.7435889 2.78118849,30.7960333 2.78445103,30.8491333 C2.78053598,31.0779222 2.77205336,31.3047444 2.77205336,31.5355 C2.77205336,32.4362333 2.81316143,33.3330333 2.89080999,34.2239333 C0.531337647,35.0073222 -0.432418065,36.8599222 0.179635325,39.4828 C0.834101797,42.2885778 3.20662432,45.9354333 5.63722014,45.9347778 C5.81078752,45.9347778 5.98500741,45.9131444 6.15857479,45.8744667 C7.97776973,49.5750778 10.4194582,52.7637 13.2121965,55.0725667 L13.2121965,58.3444444 C13.2121965,58.7063111 13.5045205,59 13.8647054,59 C14.2248904,59 14.5172144,58.7063111 14.5172144,58.3444444 L14.5172144,56.0755667 C17.1592231,57.9288222 20.0563628,59 22.9998307,59 C25.9432985,59 28.8404382,57.9288222 31.4824469,56.0755667 L31.4824469,58.3444444 C31.4824469,58.7063111 31.7747709,59 32.1349559,59 C32.4951408,59 32.7874648,58.7063111 32.7874648,58.3444444 L32.7874648,55.0725667 C35.5802031,52.7637 38.0218916,49.5744222 39.841739,45.8744667 C40.0153064,45.9138 40.1895263,45.9347778 40.3630937,45.9347778 C42.7936895,45.9347778 45.166212,42.2879222 45.8206785,39.4828 C46.4320794,36.8599222 45.4683237,35.0073222 43.1088513,34.2239333 Z M4.59255332,25.9763889 C4.89858001,25.6748333 6.54551259,24.0759333 7.63128748,23.5311667 C7.95362689,23.3692444 8.08412868,22.9752556 7.92295897,22.6514111 C7.76178926,22.3275667 7.37093641,22.1958 7.04729197,22.3583778 C6.45677137,22.6546889 5.76184935,23.1830667 5.15110098,23.6970222 C5.30052552,23.1955222 5.4662628,22.7084444 5.64505025,22.2312 C5.72661387,22.1951444 5.8023049,22.1440111 5.86559827,22.0738667 C10.5551801,16.8720333 16.9608604,13.7666667 22.9998307,13.7666667 C29.0388009,13.7666667 35.4444813,16.8720333 40.134063,22.0732111 C40.1980089,22.1440111 40.2737,22.1964556 40.3552636,22.2331667 C40.5333985,22.7091 40.6997883,23.1961778 40.8485603,23.6963667 C40.237812,23.1824111 39.5428899,22.6540333 38.9523693,22.3577222 C38.6293774,22.1951444 38.237872,22.3275667 38.0767023,22.6507556 C37.9155326,22.9746 38.0460344,23.3685889 38.3683738,23.5305111 C39.4541487,24.0759333 41.1010813,25.6741778 41.407108,25.9757333 C41.5650152,26.7873111 41.6844243,27.6283889 41.769903,28.4911 C37.503147,22.9300222 30.6622432,19.6666667 22.9998307,19.6666667 C15.3374181,19.6666667 8.49651434,22.9300222 4.22975835,28.4917556 C4.31523702,27.6290444 4.43464615,26.7879667 4.59255332,25.9763889 Z M11.9071786,9.83333333 C11.9071786,5.13431111 16.8832118,1.31111111 22.9998307,1.31111111 C29.1164495,1.31111111 34.0924827,5.13431111 34.0924827,9.83333333 C34.0924827,10.6645778 33.9828612,11.4328889 33.7779734,12.1028667 C30.7496794,10.2148667 27.1041119,9.17777778 22.9998307,9.17777778 C18.8955494,9.17777778 15.2499819,10.2148667 12.2216879,12.1028667 C12.0168001,11.4328889 11.9071786,10.6645778 11.9071786,9.83333333 Z M12.0024449,13.7496222 C12.0650858,13.7404444 12.1283791,13.7312667 12.1890625,13.7024222 C12.3078191,13.6453889 12.3906877,13.5516444 12.4546336,13.4461 C15.3582984,11.5338444 18.9216497,10.4888889 22.9998307,10.4888889 C27.0780116,10.4888889 30.6413629,11.5338444 33.5456802,13.4467556 C33.6096261,13.5516444 33.6924947,13.6460444 33.8112514,13.7030778 C33.8680196,13.7306111 33.9280505,13.7332333 33.9880813,13.7437222 C35.8797047,15.0784333 37.469869,16.8018889 38.7213812,18.8564 C34.1094479,14.809 28.4254425,12.4555556 22.9998307,12.4555556 C17.5742188,12.4555556 11.8902134,14.809 7.27828014,18.8557444 C8.52783477,16.8045111 10.1147365,15.0836778 12.0024449,13.7496222 Z M1.45007024,39.1838667 C1.02332939,37.3542111 1.54794658,36.1696222 3.0376245,35.5691333 C3.45001016,38.7420222 4.3354648,41.8080556 5.57457928,44.6223556 C4.05031839,44.5581111 2.03210822,41.6821889 1.45007024,39.1838667 Z M22.9998307,57.6888889 C13.2728798,57.6888889 4.07707125,44.9789778 4.07707125,31.5355 C4.07707125,31.3512889 4.08424885,31.1716667 4.08685889,30.9894222 C7.94383926,24.7190333 14.9955034,20.9777778 22.9998307,20.9777778 C31.0041579,20.9777778 38.055822,24.7190333 41.9128024,30.9900778 C41.9154125,31.1723222 41.9225901,31.3519444 41.9225901,31.5355 C41.9225901,44.9789778 32.7267815,57.6888889 22.9998307,57.6888889 Z M44.5495911,39.1838667 C43.9669006,41.6821889 41.9552155,44.5574556 40.425082,44.6217 C41.6641965,41.8074 42.5489986,38.7413667 42.9620368,35.5684778 C44.4517147,36.1696222 44.9763319,37.3542111 44.5495911,39.1838667 Z" id="Shape"></path>
            <path d="M19.6672567,47.9992812 C19.7672608,47.9992812 19.869265,47.9766227 19.9646022,47.9293063 C20.4452886,47.6887262 21.3193244,47.3328541 21.666672,47.3328541 C21.9746846,47.3328541 22.4033688,47.6160856 22.5607086,47.7507039 C22.8113855,47.969292 23.1860675,47.969292 23.4367444,47.7527032 C23.596751,47.6160856 24.0254352,47.3328541 24.3334478,47.3328541 C24.679462,47.3328541 25.5534978,47.6887262 26.0355175,47.9293063 C26.3661978,48.0945803 26.7648808,47.959962 26.9295542,47.630747 C27.0942276,47.301532 26.9602221,46.9016758 26.631542,46.7370683 C26.3855319,46.6137793 25.1174799,46 24.3334478,46 C23.81676,46 23.3327402,46.2259188 23.0000599,46.4305119 C22.6673796,46.2259188 22.1833598,46 21.666672,46 C20.8826398,46 19.6145879,46.6137793 19.3685778,46.7364019 C19.039231,46.9010094 18.9058922,47.301532 19.0705656,47.630747 C19.1872371,47.8646629 19.42258,47.9992812 19.6672567,47.9992812 Z" id="Path"></path>
        </g>
    </g>
</svg>