<?xml version="1.0" encoding="UTF-8"?>
<svg width="64px" height="64px" viewBox="0 0 64 64" version="1.1" xmlns="http://www.w3.org/2000/svg" xmlns:xlink="http://www.w3.org/1999/xlink">
    <!-- Generator: Sketch 58 (84663) - https://sketch.com -->
    <title>Atoms / Media / image / illustration/lip-fillers</title>
    <desc>Created with Sketch.</desc>
    <g id="Atoms-/-Media-/-image-/-illustration/lip-fillers" stroke="none" stroke-width="1" fill="none" fill-rule="evenodd" stroke-linecap="round" stroke-linejoin="round">
        <g id="noun_Lips_195510" transform="translate(4.000000, 18.000000)" stroke="#fc8181" stroke-width="2.5">
            <path d="M0,14.25 C0,14.25 15.7428571,0 20.7190476,0 C25.6952381,0 28.5,4.44745223 28.5,4.44745223" id="Path"></path>
            <path d="M57,14.25 C57,14.25 41.2571429,0 36.2809524,0 C31.3047619,0 28.5,4.44745223 28.5,4.44745223" id="Path"></path>
            <path d="M0,15.2678571 C0,15.2678571 14.0238095,28.5 20.8095238,28.5 C27.5952381,28.5 28.5,28.5 28.5,28.5" id="Path"></path>
            <path d="M57,15.2678571 C57,15.2678571 42.9761905,28.5 36.1904762,28.5 C29.4047619,28.5 28.5,28.5 28.5,28.5" id="Path"></path>
            <path d="M21.375,14.25 C21.375,14.25 24.8873239,16.2857143 28.5,16.2857143" id="Path"></path>
            <path d="M35.625,14.25 C35.625,14.25 32.1126761,16.2857143 28.5,16.2857143" id="Path"></path>
            <path d="M12.2142857,15.1818178 C12.2142857,15.1818178 17.9411303,15.7560109 22.3257457,13.9377329 C26.7103611,12.1194549 28.5,12.2151537 28.5,12.2151537" id="Path"></path>
            <path d="M44.7857143,15.1818178 C44.7857143,15.1818178 39.0588697,15.7560109 34.6742543,13.9377329 C30.2896389,12.1194549 28.5,12.2151537 28.5,12.2151537" id="Path"></path>
        </g>
    </g>
</svg>